<svg width="22" height="22" viewBox="0 0 22 22" fill="none" xmlns="http://www.w3.org/2000/svg">
<g id="etherscan-logo 1">
<g id="Layer_x0020_1">
<g id="circle">
<g id="Group_3">
<path id="Path_1" d="M5.74839 10.5602C5.74839 10.1448 6.0897 9.80348 6.50445 9.80348H7.77966C8.19513 9.80348 8.55083 10.1448 8.55083 10.5754V15.3846C8.69916 15.3399 8.87701 15.2953 9.08511 15.2507C9.36665 15.1765 9.57474 14.9245 9.57474 14.6271V8.66003C9.57474 8.24457 9.91605 7.88814 10.3459 7.88814H11.6211C12.0366 7.88814 12.3923 8.22944 12.3923 8.66003V14.1972C12.3923 14.1972 12.7041 14.0633 13.0151 13.9301C13.2528 13.8264 13.4011 13.6039 13.4011 13.336V6.73102C13.4011 6.31555 13.7424 5.95913 14.1579 5.95913H15.4331C15.8485 5.95913 16.1898 6.30043 16.1898 6.73102V12.1789C17.2872 11.3775 18.4148 10.4126 19.3048 9.2548C19.5719 8.91349 19.6461 8.46778 19.4978 8.05231C17.8661 3.3619 12.735 0.867648 8.04824 2.50072C3.36143 4.1338 0.870052 9.2692 2.50097 13.9603C2.67882 14.4946 2.91644 14.9994 3.19798 15.489C3.42047 15.8749 3.83594 16.0974 4.28093 16.0528C4.51855 16.0377 4.81521 16.0082 5.18531 15.9635C5.5115 15.934 5.74911 15.6517 5.74911 15.3248L5.74839 10.5602Z" fill="white"/>
<path id="Path_2" d="M5.71777 18.2794C9.7371 21.2035 15.3585 20.3128 18.2798 16.2906C19.3923 14.7468 20 12.8912 20 10.9917C20 10.7836 19.9849 10.5763 19.9705 10.3682C16.6935 15.2811 10.6271 17.5816 5.71777 18.2794Z" fill="white"/>
</g>
</g>
</g>
</g>
</svg>
