<svg width="22" height="22" viewBox="0 0 22 22" fill="none" xmlns="http://www.w3.org/2000/svg">
<g id="vuesax/outline/eye">
<g id="eye">
<path id="Vector" d="M11.0004 14.9696C8.80958 14.9696 7.03125 13.1913 7.03125 11.0004C7.03125 8.80958 8.80958 7.03125 11.0004 7.03125C13.1913 7.03125 14.9696 8.80958 14.9696 11.0004C14.9696 13.1913 13.1913 14.9696 11.0004 14.9696ZM11.0004 8.40625C9.57042 8.40625 8.40625 9.57042 8.40625 11.0004C8.40625 12.4304 9.57042 13.5946 11.0004 13.5946C12.4304 13.5946 13.5946 12.4304 13.5946 11.0004C13.5946 9.57042 12.4304 8.40625 11.0004 8.40625Z" fill="white"/>
<path id="Vector_2" d="M11.0002 19.2681C7.55357 19.2681 4.2994 17.2514 2.06273 13.7498C1.09107 12.2373 1.09107 9.77144 2.06273 8.24978C4.30857 4.74811 7.56273 2.73145 11.0002 2.73145C14.4377 2.73145 17.6919 4.74811 19.9286 8.24978C20.9002 9.76228 20.9002 12.2281 19.9286 13.7498C17.6919 17.2514 14.4377 19.2681 11.0002 19.2681ZM11.0002 4.10645C8.0394 4.10645 5.2069 5.88478 3.2269 8.99228C2.5394 10.0648 2.5394 11.9348 3.2269 13.0073C5.2069 16.1148 8.0394 17.8931 11.0002 17.8931C13.9611 17.8931 16.7936 16.1148 18.7736 13.0073C19.4611 11.9348 19.4611 10.0648 18.7736 8.99228C16.7936 5.88478 13.9611 4.10645 11.0002 4.10645Z" fill="white"/>
</g>
</g>
</svg>
