<svg width="17" height="17" viewBox="0 0 17 17" fill="none" xmlns="http://www.w3.org/2000/svg">
<g id="vuesax/outline/flag">
<g id="flag">
<path id="Vector" d="M3.64746 16.1149C3.35704 16.1149 3.11621 15.8741 3.11621 15.5837V1.41699C3.11621 1.12658 3.35704 0.885742 3.64746 0.885742C3.93788 0.885742 4.17871 1.12658 4.17871 1.41699V15.5837C4.17871 15.8741 3.93788 16.1149 3.64746 16.1149Z" fill="#4C3764"/>
<path id="Vector_2" d="M11.5808 11.8643H3.64746C3.35704 11.8643 3.11621 11.6234 3.11621 11.333C3.11621 11.0426 3.35704 10.8018 3.64746 10.8018H11.5808C12.3529 10.8018 12.7141 10.5963 12.785 10.4193C12.8558 10.2422 12.7495 9.84551 12.197 9.30009L11.347 8.45009C11 8.14551 10.7875 7.68509 10.7662 7.17509C10.745 6.63676 10.9575 6.10551 11.347 5.71592L12.197 4.86592C12.7212 4.34176 12.8841 3.91676 12.8062 3.73259C12.7283 3.54842 12.3245 3.36426 11.5808 3.36426H3.64746C3.34996 3.36426 3.11621 3.12342 3.11621 2.83301C3.11621 2.54259 3.35704 2.30176 3.64746 2.30176H11.5808C13.132 2.30176 13.6279 2.94634 13.7908 3.32884C13.9466 3.71134 14.0529 4.51884 12.9479 5.62384L12.0979 6.47384C11.9208 6.65092 11.8216 6.89884 11.8287 7.14676C11.8358 7.35926 11.9208 7.55051 12.0695 7.68509L12.9479 8.55634C14.0316 9.64009 13.9254 10.4476 13.7695 10.8372C13.6066 11.2126 13.1037 11.8643 11.5808 11.8643Z" fill="#4C3764"/>
</g>
</g>
</svg>
