<svg width="21" height="20" viewBox="0 0 21 20" fill="none" xmlns="http://www.w3.org/2000/svg">
<g id="vuesax/bold/judge">
<g id="judge">
<path id="Vector" d="M17.6167 15.8667C17.4917 15.9917 17.3333 16.0501 17.175 16.0501C17.0167 16.0501 16.8583 15.9917 16.7333 15.8667L12.6083 11.7417L13.05 11.3001L13.4917 10.8584L17.6167 14.9834C17.8583 15.2251 17.8583 15.6251 17.6167 15.8667Z" fill="white"/>
<path id="Vector_2" d="M5.89167 7.73308L10.725 12.5664C11.05 12.8914 11.05 13.4164 10.725 13.7414L9.975 14.4997C9.3 15.1664 8.23333 15.1664 7.56667 14.4997L3.95 10.8831C3.29167 10.2247 3.29167 9.14975 3.95 8.48308L4.70833 7.72475C5.03333 7.40808 5.56667 7.40808 5.89167 7.73308Z" fill="white"/>
<path id="Vector_3" d="M15.9917 8.49141L12.8167 11.6581C12.4833 11.9914 11.95 11.9914 11.6167 11.6581L6.8 6.84141C6.46667 6.50807 6.46667 5.97474 6.8 5.64141L9.975 2.46641C10.6333 1.80807 11.7083 1.80807 12.375 2.46641L15.9917 6.08307C16.65 6.74974 16.65 7.81641 15.9917 8.49141Z" fill="white"/>
<path id="Vector_4" d="M7.16667 18.125H2.16667C1.825 18.125 1.54167 17.8417 1.54167 17.5C1.54167 17.1583 1.825 16.875 2.16667 16.875H7.16667C7.50833 16.875 7.79167 17.1583 7.79167 17.5C7.79167 17.8417 7.50833 18.125 7.16667 18.125Z" fill="white"/>
</g>
</g>
</svg>
