<svg width="135" height="32" viewBox="0 0 135 32" fill="none" xmlns="http://www.w3.org/2000/svg">
<g opacity="0.8">
<path d="M70.7995 19.6C67.3995 19.6 64.6995 22.2 64.6995 25.7C64.6995 29.2 67.4995 31.8 70.7995 31.8C74.1995 31.8 76.8995 29.1 76.8995 25.7C76.8995 22.2 74.1995 19.6 70.7995 19.6ZM70.7995 22C72.8995 22 74.3995 23.5 74.3995 25.7C74.3995 27.8 72.7995 29.4 70.7995 29.4C68.6995 29.4 67.1995 27.9 67.1995 25.7C67.0995 23.6 68.6995 22 70.7995 22ZM121.599 27.9V22.3H124.499V19.9H121.599V16.6L119.099 17.4V19.9H116.999V22.3H119.099V27.9C119.099 30.9 120.599 32 124.499 31.5V29.3C122.599 29.4 121.599 29.4 121.599 27.9ZM134.599 29.2H128.899L134.599 22.3V20H125.699V22.3H131.399L125.699 29.2V31.6H134.599V29.2ZM83.9995 19.7V22.4C82.2995 22.3 80.3995 23 80.3995 25.7V31.5H77.8995V19.9H80.3995V21.8C81.0995 20.3 82.4995 19.7 83.9995 19.7ZM89.9995 19.6C86.5995 19.6 83.8995 22.2 83.8995 25.7C83.8995 29.2 86.6995 31.8 89.9995 31.8C93.3995 31.8 96.0995 29.1 96.0995 25.7C96.1995 22.2 93.4995 19.6 89.9995 19.6ZM89.9995 22C92.0995 22 93.5995 23.5 93.5995 25.7C93.5995 27.8 91.9995 29.4 89.9995 29.4C87.8995 29.4 86.3995 27.9 86.3995 25.7C86.3995 23.6 87.9995 22 89.9995 22ZM112.699 19.9L108.999 31.6H106.599L104.199 23.8L101.799 31.6H99.3995L95.6995 20H98.2995L100.499 28L102.899 20H105.299L107.699 28L109.899 20H112.699V19.9ZM115.999 19.9H113.499V31.5H115.999V19.9ZM34.4995 1.7V6.5C33.4995 5.8 32.1995 5.2 30.8995 5.2C27.2995 5.2 24.3995 8.3 24.7995 12C25.0995 14.8 27.3995 17.1 30.2995 17.5C31.8995 17.6 33.3995 17.2 34.4995 16.3V17.2H36.9995V1L34.4995 1.7ZM34.3995 11.4C34.3995 13.6 32.2995 15.4 29.9995 14.9C28.6995 14.6 27.5995 13.6 27.1995 12.1C26.7995 9.8 28.4995 7.7 30.7995 7.7C32.7995 7.8 34.3995 9.4 34.3995 11.4ZM9.69946 5.7V6.5C8.69946 5.8 7.49946 5.3 6.19946 5.3C2.59946 5.3 -0.300536 8.4 0.0994642 12.1C0.399464 14.9 2.69946 17.2 5.59946 17.6C7.19946 17.7 8.69946 17.3 9.79946 16.4V17.3H12.3995V5.7H9.69946ZM9.69946 11.4C9.69946 13.6 7.59946 15.4 5.29946 14.9C3.99946 14.6 2.89946 13.6 2.49946 12.1C2.09946 9.8 3.89946 7.8 6.09946 7.8C8.09946 7.8 9.69946 9.4 9.69946 11.4ZM19.3995 5.3C17.7995 5.3 16.5995 5.9 15.7995 7.1V5.6H13.2995V17.2H15.7995V11C15.7995 8.6 17.0995 7.7 18.7995 7.7C20.3995 7.7 21.3995 8.6 21.3995 10.4V17.3H23.8995V10.2C23.8995 7.1 21.9995 5.3 19.3995 5.3ZM66.0995 13.8C65.4995 14.6 64.4995 15.2 63.0995 15.2C61.1995 15.2 59.7995 14.3 59.3995 12.4H68.6995C68.7995 12.1 68.7995 11.7 68.7995 11.4C68.7995 8.1 66.3995 5.3 62.9995 5.3C59.2995 5.3 56.8995 8 56.8995 11.4C56.8995 14.9 59.3995 17.5 63.1995 17.5C65.3995 17.5 67.1995 16.5 68.2995 15L66.0995 13.8ZM62.8995 7.6C64.3995 7.6 65.8995 8.4 66.1995 10.4H59.2995C59.6995 8.7 60.9995 7.6 62.8995 7.6ZM94.7995 15.3C96.1995 15.3 97.1995 14.7 97.7995 13.9L99.8995 15.1C98.7995 16.7 97.0995 17.6 94.7995 17.6C90.8995 17.6 88.4995 15 88.4995 11.5C88.4995 8 90.9995 5.4 94.5995 5.4C98.0995 5.4 100.399 8.2 100.399 11.5C100.399 11.6 100.399 11.8 100.299 12C100.299 12.2 100.199 12.3 100.199 12.5H90.8995C91.4995 14.3 92.9995 15.3 94.7995 15.3ZM97.8995 10.5C97.5995 8.5 96.0995 7.7 94.5995 7.7C92.6995 7.7 91.4995 8.8 91.0995 10.5H97.8995ZM115.999 17.3H113.499V15H115.999V17.3ZM101.699 17.3H104.199V11.1C104.199 8.7 105.499 7.8 107.199 7.8C108.699 7.8 109.799 8.8 109.799 10.5V17.3H112.299V10.2C112.299 7.2 110.399 5.4 107.899 5.4C106.299 5.4 105.099 6 104.299 7.2V5.7H101.799V17.3H101.699ZM71.9995 8.9C71.9995 8.1 72.7995 7.7 73.6995 7.7C74.5995 7.7 75.3995 8.1 75.7995 8.9L77.9995 7.7C77.1995 6.2 75.5995 5.3 73.6995 5.3C71.2995 5.3 69.4995 6.6 69.4995 8.8C69.4995 11.2 71.5995 11.8 73.3995 12.3H73.4995C73.5995 12.3 73.5995 12.4 73.6995 12.4C74.8995 12.8 75.7995 13 75.7995 13.9C75.7995 14.8 74.9995 15.2 73.7995 15.2C72.6995 15.2 71.7995 14.8 71.3995 13.9L68.9995 15C69.7995 16.5 71.3995 17.5 73.5995 17.5C76.0995 17.5 78.1995 16.2 78.1995 13.9C78.1995 11.4 75.9995 10.8 74.2995 10.3C73.0995 10 71.9995 9.7 71.9995 8.9ZM81.6995 8.9C81.6995 8.1 82.4995 7.7 83.3995 7.7C84.2995 7.7 85.0995 8.1 85.5995 8.9L87.7995 7.8C86.9995 6.3 85.3995 5.4 83.4995 5.4C81.0995 5.4 79.2995 6.7 79.2995 8.9C79.2995 11.3 81.3995 11.9 83.1995 12.4H83.3995C84.5995 12.8 85.5995 13.1 85.5995 13.9C85.5995 14.8 84.6995 15.2 83.5995 15.2C82.3995 15.2 81.5995 14.8 81.1995 13.9L78.9995 15C79.7995 16.5 81.3995 17.5 83.5995 17.5C86.1995 17.5 88.1995 16.2 88.1995 13.9C88.1995 11.4 86.0995 10.8 84.2995 10.3H83.9995C83.8995 10.3 83.7995 10.2 83.6995 10.2C82.5995 10 81.6995 9.7 81.6995 8.9ZM44.1995 8.2V5.5C42.6995 5.5 41.2995 6.1 40.5995 7.6V5.7H38.0995V17.3H40.5995V11.5C40.5995 8.8 42.4995 8 44.1995 8.2ZM55.6995 15V21.4C56.4995 20.2 57.6995 19.6 59.2995 19.6C61.8995 19.6 63.6995 21.3 63.6995 24.4V31.6H61.1995V24.7C61.1995 23 60.1995 22 58.5995 22C56.8995 22 55.5995 23 55.5995 25.3V31.5H53.0995V17.1C52.2995 17.4 51.4995 17.6 50.4995 17.6C46.5995 17.6 44.1995 15 44.1995 11.5C44.1995 8 46.6995 5.4 50.2995 5.4C53.7995 5.4 56.0995 8.2 56.0995 11.5C56.0995 11.6 56.0995 11.8 55.9995 12C55.9995 12.2 55.8995 12.3 55.8995 12.5H46.5995C46.9995 14.3 48.4995 15.3 50.2995 15.3C51.3995 15.3 52.1995 14.9 52.8995 14.4C53.0995 14.3 53.1995 14.1 53.2995 13.9L55.6995 15ZM53.6995 10.5C53.2995 8.5 51.8995 7.7 50.3995 7.7C48.4995 7.7 47.2995 8.8 46.8995 10.5H53.6995Z" fill="#707A83"/>
</g>
</svg>
