<svg width="119" height="26" viewBox="0 0 119 26" fill="none" xmlns="http://www.w3.org/2000/svg">
<g clip-path="url(#clip0_941_9091)">
<path d="M0.5 0.7H4.7C5.8 0.7 6.4 0.9 7 1.5C7.3 1.8 7.5 2.3 7.5 2.8C7.5 3.8 7 4.4 6.2 4.7C7.2 5 7.8 5.6 7.8 6.8C7.8 8.3 6.7 9.2 4.7 9.2H0.5V0.7ZM4.1 4.1C4.8 4.1 5.2 3.9 5.2 3.4C5.2 2.9 4.8 2.7 4.1 2.7H2.7V4.2L4.1 4.1ZM4.4 7.4C5.1 7.4 5.5 7.1 5.5 6.6C5.5 6.1 5.1 5.8 4.4 5.8H2.6V7.4H4.4ZM13.1 0.7H15.4V7.2H19.3V9.3H13.1V0.7ZM23.8 5C23.8 2.6 25.7 0.5 28.2 0.5C30.7 0.5 32.6 2.5 32.6 4.9C32.6 7.3 30.7 9.3 28.2 9.3C25.7 9.4 23.8 7.4 23.8 5ZM30.4 5C30.4 3.8 29.6 2.6 28.3 2.6C27.1 2.6 26.3 3.6 26.3 4.9C26.3 6.1 27.1 7.2 28.4 7.2C29.5 7.3 30.4 6.2 30.4 5ZM37.8 5C37.8 2.5 39.6 0.5 42.1 0.5C43.8 0.5 44.8 1.2 45.6 2.3L43.9 3.6C43.4 3 42.9 2.6 42.1 2.6C41 2.6 40.1 3.6 40.1 4.9C40.1 6.1 40.9 7.2 42.1 7.2C42.9 7.2 43.5 6.8 43.9 6.2L45.6 7.4C44.8 8.5 43.8 9.3 42 9.3C39.7 9.4 37.8 7.6 37.8 5ZM51 0.7H53.3V4.2L56.1 0.7H58.8L55.7 4.4L58.9 9.3H56.2L54.2 6.1L53.4 7V9.2H51.1V0.7H51ZM62.8 5C62.8 2.5 64.6 0.5 67.1 0.5C68.8 0.5 69.8 1.2 70.6 2.3L68.9 3.6C68.4 3 67.9 2.6 67.1 2.6C66 2.6 65.1 3.6 65.1 4.9C65.1 6.1 65.9 7.2 67.1 7.2C67.9 7.2 68.5 6.8 68.9 6.2L70.6 7.4C69.8 8.5 68.8 9.3 67 9.3C64.7 9.4 62.8 7.6 62.8 5ZM75.9 0.7H78.2V3.9H81.1V0.7H83.4V9.2H81.1V6H78.2V9.2H75.9V0.7ZM91.9 0.7H94.1L97.6 9.3H95.2L94.6 7.8H91.4L90.8 9.3H88.4L91.9 0.7ZM93.9 5.9L93 3.5L92.1 5.9H93.9ZM102.6 0.7H104.9V9.2H102.6V0.7ZM110.7 0.7H112.8L116.2 5.2V0.7H118.5V9.2H116.5L113 4.6V9.2H110.7V0.7ZM0.6 21.2C0.6 18.8 2.3 16.8 4.8 16.8C6.3 16.8 7.1 17.4 8 18.1L7.4 18.8C6.6 18.1 5.9 17.6 4.8 17.6C3 17.6 1.6 19.1 1.6 21.1C1.6 23.1 3 24.7 4.8 24.7C5.9 24.7 6.7 24.2 7.4 23.5L8 24.1C7.1 24.9 6.1 25.5 4.7 25.5C2.3 25.6 0.6 23.6 0.6 21.2ZM16.9 16.8H17.7L21.4 25.4H20.4L19.4 23.1H14.9L13.9 25.4H12.9L16.9 16.8ZM19.2 22.3L17.3 18L15.4 22.3H19.2ZM27.3 16.9H30.3C32.1 16.9 33.3 17.9 33.3 19.6C33.3 21.4 31.9 22.3 30 22.3H28V25.3H27.1L27.3 16.9ZM30.3 21.6C31.7 21.6 32.6 20.8 32.6 19.7C32.6 18.5 31.7 17.9 30.4 17.9H28.4V21.7L30.3 21.6ZM39.5 16.9H40.4V25.4H39.5V16.9ZM49.2 17.8H46.5V16.9H53V17.8H50.3V25.4H49.4L49.2 17.8ZM60.9 16.8H61.7L65.4 25.4H64.4L63.4 23.1H58.9L57.9 25.4H56.9L60.9 16.8ZM63.2 22.3L61.3 18L59.4 22.3H63.2ZM71.3 16.9H72.2V24.5H76.8V25.4H71.2L71.3 16.9Z" fill="#8A939B"/>
</g>
<defs>
<clipPath id="clip0_941_9091">
<rect width="118" height="25" fill="white" transform="translate(0.5 0.5)"/>
</clipPath>
</defs>
</svg>
