<svg width="150" height="30" viewBox="0 0 150 30" fill="none" xmlns="http://www.w3.org/2000/svg">
<g clip-path="url(#clip0_941_9064)">
<path d="M0.3 3.1C0 3.9 0 5 0 7.1V15V22.9C0 25 0 26.1 0.3 26.9C0.7 27.9 1.5 28.7 2.6 29.2C3.4 29.5 4.5 29.5 6.6 29.5H14.5H22.4C24.5 29.5 25.6 29.5 26.4 29.2C27.4 28.8 28.2 28 28.7 26.9C29 26.1 29 25 29 22.9V15V7.1C29 5 29 3.9 28.7 3.1C28.3 2.1 27.5 1.3 26.4 0.8C25.5 0.5 24.4 0.5 22.3 0.5H14.4H6.6C4.5 0.5 3.4 0.5 2.6 0.8C1.6 1.3 0.8 2.1 0.3 3.1Z" fill="#8A939B"/>
<path d="M19.1 12.9002C20.5 12.9002 21.7 11.7002 21.7 10.3002C21.7 8.9002 20.5 7.7002 19.1 7.7002C17.7 7.7002 16.5 8.9002 16.5 10.3002C16.5 11.8002 17.7 12.9002 19.1 12.9002Z" fill="white"/>
<path d="M9.79922 12.9002C11.1992 12.9002 12.3992 11.7002 12.3992 10.3002C12.3992 8.9002 11.1992 7.7002 9.79922 7.7002C8.39922 7.7002 7.19922 8.9002 7.19922 10.3002C7.19922 11.8002 8.39922 12.9002 9.79922 12.9002Z" fill="white"/>
<path d="M19.1 22.2C20.5 22.2 21.7 21 21.7 19.6C21.7 18.2 20.5 17 19.1 17C17.7 17 16.5 18.2 16.5 19.6C16.5 21 17.7 22.2 19.1 22.2Z" fill="white"/>
<path d="M9.79922 22.2C11.1992 22.2 12.3992 21 12.3992 19.6C12.3992 18.2 11.1992 17 9.79922 17C8.39922 17 7.19922 18.2 7.19922 19.6C7.19922 21 8.39922 22.2 9.79922 22.2Z" fill="white"/>
<path d="M45.6992 23.6998C49.1992 23.6998 51.2992 21.9998 51.2992 19.0998C51.2992 16.8998 49.7992 15.2998 47.5992 15.0998V14.9998C49.1992 14.6998 50.4992 13.1998 50.4992 11.3998C50.4992 8.8998 48.5992 7.2998 45.6992 7.2998H39.1992V23.5998H45.6992V23.6998ZM41.6992 9.3998H44.9992C46.7992 9.3998 47.8992 10.1998 47.8992 11.7998C47.8992 13.3998 46.6992 14.2998 44.4992 14.2998H41.6992V9.3998ZM41.6992 21.5998V16.1998H44.9992C47.3992 16.1998 48.6992 17.0998 48.6992 18.8998C48.6992 20.6998 47.4992 21.5998 45.1992 21.5998H41.6992Z" fill="#8A939B"/>
<path d="M53.5 23.6998H55.9V7.2998H53.5V23.6998Z" fill="#8A939B"/>
<path d="M63.8004 23.9C67.2004 23.9 69.4004 21.6 69.4004 17.7C69.4004 13.9 67.1004 11.5 63.8004 11.5C60.4004 11.5 58.2004 13.8 58.2004 17.7C58.1004 21.5 60.4004 23.9 63.8004 23.9ZM63.8004 21.9C61.9004 21.9 60.6004 20.4 60.6004 17.7C60.6004 15.1 61.8004 13.6 63.8004 13.6C65.7004 13.6 67.0004 15.1 67.0004 17.7C66.9004 20.4 65.7004 21.9 63.8004 21.9Z" fill="#8A939B"/>
<path d="M81.7 15.9001C81.5 13.6001 79.6 11.6001 76.6 11.6001C73.2 11.6001 71 14.0001 71 17.8001C71 21.7001 73.2 24.0001 76.6 24.0001C79.5 24.0001 81.5 22.3001 81.7 19.8001H79.3C79 21.2001 78 22.0001 76.5 22.0001C74.6 22.0001 73.3 20.5001 73.3 17.9001C73.3 15.3001 74.5 13.8001 76.4 13.8001C78 13.8001 78.9 14.8001 79.2 16.1001L81.7 15.9001Z" fill="#8A939B"/>
<path d="M86.3004 16.7998V7.2998H83.9004V23.5998H86.3004V19.2998L87.3004 18.2998L91.3004 23.5998H94.1004L89.0004 16.8998L93.9004 11.7998H91.0004L86.3004 16.7998Z" fill="#8A939B"/>
<path d="M95.0992 15.0999C95.0992 16.7999 96.1992 17.8999 98.4992 18.3999L100.399 18.7999C101.699 19.0999 102.099 19.4999 102.099 20.2999C102.099 21.2999 101.199 21.8999 99.6992 21.8999C98.1992 21.8999 97.3992 21.2999 97.0992 19.9999H94.6992C94.8992 22.2999 96.6992 23.6999 99.6992 23.6999C102.499 23.6999 104.499 22.1999 104.499 19.9999C104.499 18.2999 103.599 17.2999 101.099 16.7999L99.2992 16.4999C97.9992 16.1999 97.4992 15.6999 97.4992 14.9999C97.4992 14.0999 98.3992 13.3999 99.6992 13.3999C101.099 13.3999 101.899 14.0999 102.099 15.2999H104.399C104.299 13.0999 102.499 11.5999 99.7992 11.5999C96.8992 11.4999 95.0992 12.9999 95.0992 15.0999Z" fill="#8A939B"/>
<path d="M107.399 8.8999V11.6999H105.699V13.5999H107.399V20.4999C107.399 22.7999 108.299 23.6999 110.799 23.6999C111.299 23.6999 111.899 23.6999 112.199 23.5999V21.6999C112.099 21.6999 111.699 21.6999 111.399 21.6999C110.399 21.6999 109.999 21.1999 109.999 20.1999V13.5999H112.299V11.6999H109.999V8.8999H107.399Z" fill="#8A939B"/>
<path d="M118.399 21.9001C117.099 21.9001 116.199 21.2001 116.199 20.2001C116.199 19.2001 116.999 18.5001 118.499 18.4001L121.399 18.2001V19.1001C121.399 20.7001 120.099 21.9001 118.399 21.9001ZM117.699 23.9001C119.299 23.9001 120.799 23.1001 121.499 21.7001V23.7001H123.799V15.5001C123.799 13.1001 121.999 11.6001 119.099 11.6001C116.199 11.6001 114.299 13.2001 114.199 15.3001H116.499C116.699 14.2001 117.599 13.6001 118.999 13.6001C120.499 13.6001 121.399 14.4001 121.399 15.7001V16.5001L118.099 16.7001C115.299 16.8001 113.699 18.1001 113.699 20.2001C113.699 22.4001 115.299 23.9001 117.699 23.9001Z" fill="#8A939B"/>
<path d="M136.6 15.9001C136.4 13.6001 134.5 11.6001 131.5 11.6001C128.1 11.6001 125.9 14.0001 125.9 17.8001C125.9 21.7001 128.1 24.0001 131.5 24.0001C134.4 24.0001 136.4 22.3001 136.6 19.8001H134.2C133.9 21.2001 132.9 22.0001 131.4 22.0001C129.5 22.0001 128.2 20.5001 128.2 17.9001C128.2 15.3001 129.4 13.8001 131.3 13.8001C132.9 13.8001 133.8 14.8001 134.1 16.1001L136.6 15.9001Z" fill="#8A939B"/>
<path d="M141.201 16.7998V7.2998H138.801V23.5998H141.201V19.2998L142.201 18.2998L146.301 23.5998H149.101L144.001 16.7998L148.901 11.6998H146.001L141.201 16.7998Z" fill="#8A939B"/>
</g>
<defs>
<clipPath id="clip0_941_9064">
<rect width="150" height="29" fill="white" transform="translate(0 0.5)"/>
</clipPath>
</defs>
</svg>
