<svg width="112" height="26" viewBox="0 0 112 26" fill="none" xmlns="http://www.w3.org/2000/svg">
<g clip-path="url(#clip0_941_9035)">
<path fill-rule="evenodd" clip-rule="evenodd" d="M7.2 25.3999C3.6 25.3999 0 22.7999 0 16.8999C0 10.9999 3.5 8.3999 7.2 8.3999C9 8.3999 10.4 8.8999 11.4 9.4999L10.3 11.8999C9.6 11.3999 8.6 11.0999 7.6 11.0999C5.4 11.0999 3.4 12.7999 3.4 16.7999C3.4 20.7999 5.5 22.5999 7.6 22.5999C8.6 22.5999 9.6 22.2999 10.3 21.7999L11.4 24.2999C10.3 24.9999 9 25.3999 7.2 25.3999Z" fill="#8A939B"/>
<path fill-rule="evenodd" clip-rule="evenodd" d="M19.7 25.3999C15.1 25.3999 12.5 21.6999 12.5 16.8999C12.5 12.0999 15 8.3999 19.7 8.3999C24.3 8.3999 26.9 11.9999 26.9 16.8999C26.9 21.7999 24.3 25.3999 19.7 25.3999ZM19.7 11.0999C17.1 11.0999 15.9 13.3999 15.9 16.8999C15.9 20.3999 17.2 22.6999 19.7 22.6999C22.3 22.6999 23.5 20.3999 23.5 16.8999C23.5 13.3999 22.3 11.0999 19.7 11.0999Z" fill="#8A939B"/>
<path fill-rule="evenodd" clip-rule="evenodd" d="M31.3008 5.8C30.2008 5.8 29.3008 5 29.3008 3.9C29.3008 2.8 30.2008 2 31.3008 2C32.4008 2 33.3008 2.8 33.3008 3.9C33.3008 5 32.4008 5.8 31.3008 5.8ZM29.6008 8.8H33.0008V25.1H29.7008V8.8H29.6008Z" fill="#8A939B"/>
<path fill-rule="evenodd" clip-rule="evenodd" d="M46.1004 25.0999V14.1999C46.1004 12.2999 44.9004 11.0999 42.7004 11.0999C41.5004 11.0999 40.4004 11.2999 39.7004 11.5999V25.0999H36.4004V9.5999C38.0004 8.8999 40.1004 8.3999 42.7004 8.3999C47.3004 8.3999 49.5004 10.3999 49.5004 13.7999V24.9999H46.1004V25.0999Z" fill="#8A939B"/>
<path fill-rule="evenodd" clip-rule="evenodd" d="M58.1992 25.3998C56.0992 25.3998 53.9992 24.8998 52.6992 24.1998V1.2998H55.9992V9.1998C56.7992 8.7998 58.0992 8.4998 59.1992 8.4998C63.3992 8.4998 66.2992 11.4998 66.2992 16.4998C66.1992 22.6998 63.0992 25.3998 58.1992 25.3998ZM58.5992 11.0998C57.6992 11.0998 56.5992 11.2998 55.9992 11.5998V22.2998C56.4992 22.4998 57.3992 22.6998 58.3992 22.6998C60.9992 22.6998 62.9992 20.8998 62.9992 16.6998C62.8992 13.1998 61.1992 11.0998 58.5992 11.0998Z" fill="#8A939B"/>
<path fill-rule="evenodd" clip-rule="evenodd" d="M75.1996 25.3999C70.4996 25.3999 68.0996 23.4999 68.0996 20.2999C68.0996 15.7999 72.8996 14.8999 77.8996 14.6999V13.6999C77.8996 11.5999 76.4996 10.8999 74.3996 10.8999C72.8996 10.8999 70.9996 11.3999 69.8996 11.8999L69.0996 9.5999C70.3996 8.9999 72.5996 8.3999 74.7996 8.3999C78.6996 8.3999 81.0996 9.8999 81.0996 13.8999V24.1999C79.8996 24.8999 77.4996 25.3999 75.1996 25.3999ZM77.9996 16.8999C74.6996 17.0999 71.2996 17.3999 71.2996 20.2999C71.2996 21.9999 72.5996 23.0999 75.0996 23.0999C76.1996 23.0999 77.3996 22.8999 77.8996 22.6999V16.8999H77.9996Z" fill="#8A939B"/>
<path fill-rule="evenodd" clip-rule="evenodd" d="M88.6 25.3999C86.7 25.3999 84.7 24.8999 83.5 24.1999L84.6 21.6999C85.4 22.1999 87.2 22.7999 88.5 22.7999C90.3 22.7999 91.5 21.8999 91.5 20.5999C91.5 19.0999 90.3 18.4999 88.6 17.8999C86.4 17.0999 84 16.0999 84 12.9999C84 10.2999 86.1 8.3999 89.7 8.3999C91.7 8.3999 93.3 8.8999 94.5 9.5999L93.5 11.8999C92.8 11.3999 91.3 10.8999 90.1 10.8999C88.4 10.8999 87.4 11.7999 87.4 12.9999C87.4 14.4999 88.6 14.9999 90.2 15.5999C92.5 16.3999 95 17.3999 95 20.5999C94.9 23.4999 92.6 25.3999 88.6 25.3999Z" fill="#8A939B"/>
<path fill-rule="evenodd" clip-rule="evenodd" d="M111 16.9L100.2 18.4C100.5 21.3 102.4 22.8 105.2 22.8C106.8 22.8 108.6 22.4 109.7 21.8L110.7 24.3C109.4 25 107.2 25.5 105 25.5C99.9 25.5 97 22.2 97 17C97 12 99.8 8.5 104.4 8.5C108.6 8.5 111.2 11.3 111.2 15.7C111 16 111 16.4 111 16.9ZM104.2 10.9C101.7 10.9 100 12.8 99.9 16.2L107.8 15.1C107.8 12.2 106.4 10.9 104.2 10.9Z" fill="#8A939B"/>
</g>
<defs>
<clipPath id="clip0_941_9035">
<rect width="112" height="25" fill="white" transform="translate(0 0.5)"/>
</clipPath>
</defs>
</svg>
