<svg width="207" height="16" viewBox="0 0 207 16" fill="none" xmlns="http://www.w3.org/2000/svg">
<g clip-path="url(#clip0_941_9089)">
<path d="M2.8 2.6V6.8H8.5V8.7H2.8V14.8H0.5V0.8H10V2.5L2.8 2.6ZM22.7 0.7C24 0.7 24.6 0.9 25.2 1.3C25.9 2 26.5 3 26.5 7.7C26.5 12.4 25.9 13.4 25.2 14.1C24.6 14.5 24.2 14.7 22.7 14.7H18.5C17.2 14.7 16.6 14.5 16 14.1C15.2 13.3 14.7 12.4 14.7 7.7C14.7 3 15.3 2 16 1.3C16.6 0.9 17 0.7 18.5 0.7H22.7ZM17.6 12.7C17.8 12.9 18 12.9 18.7 12.9H22.5C23.3 12.9 23.5 12.9 23.6 12.7C23.8 12.5 24.2 11.9 24.2 7.8C24.2 3.8 23.8 3 23.6 2.9C23.4 2.7 23.2 2.7 22.5 2.7H18.7C17.9 2.7 17.7 2.7 17.6 2.9C17.4 3.1 17 3.7 17 7.8C17.2 11.7 17.4 12.5 17.6 12.7ZM44 8.9C44 12.5 43.6 13.1 42.9 13.8C42.1 14.4 41.2 14.6 39.3 14.6H37.2C35.3 14.6 34.4 14.4 33.6 13.8C32.8 13 32.5 12.3 32.5 8.9V0.7H34.8V9.4C34.8 11.9 35 12.2 35.4 12.5C35.6 12.7 36 12.9 37.7 12.9H39C40.5 12.9 40.9 12.9 41.3 12.5C41.7 12.1 41.7 12.1 41.7 9.4V0.7H44V8.9ZM62.2 14.8H59.7C59.1 14.8 58.9 14.6 58.6 14.2L52.9 3.7H52.5V14.7H50.2V0.7H52.9C53.5 0.7 53.7 0.9 54 1.3L59.5 11.2H59.9V0.5H62.2V14.8ZM75.1 0.7C76.8 0.7 77.9 0.9 78.7 1.7C79.7 2.5 80.2 4.4 80.2 7.8C80.2 11.2 79.8 12.9 78.7 13.9C77.9 14.7 77 14.9 75.1 14.9H68.7V0.9H75.1V0.7ZM76.8 3C76.4 2.6 75.8 2.6 75.1 2.6H71.1V12.8H75.1C76.1 12.8 76.4 12.8 76.8 12.4C77.4 11.8 77.6 10.9 77.6 7.8C77.8 4.5 77.4 3.6 76.8 3ZM96 14.8H85.9V0.8H96V2.7H88.2V6.5H94.6V8.4H88.2V12.7H96V14.8ZM109.9 9.2C109.7 9 109.1 9 108.4 9H104.2V14.9H101.9V0.9H109.9C110.9 0.9 111.6 1.1 112 1.5C112.6 2.1 113 2.8 113 4.9C113 7.4 112.2 8.1 110.5 8.3C112 8.5 112.6 8.9 112.8 11C112.8 12.9 113 14.2 113 15H110.7C110.5 14 110.5 12.7 110.5 11.2C110.2 9.8 110 9.4 109.9 9.2ZM109.1 7.1C109.7 7.1 109.9 6.9 110.1 6.9C110.3 6.7 110.5 6.3 110.5 4.8C110.5 3.3 110.3 2.9 110.1 2.7C109.9 2.5 109.7 2.5 109.1 2.5H104.2V7.1H109.1ZM128.8 14.2C128.4 14.6 127.7 14.8 126.5 14.8H121.6C120.5 14.8 119.7 14.6 119.3 14.2C118.7 13.6 118.5 12.9 118.5 10.4H120.8C120.8 12.1 121 12.5 121 12.7C121.2 12.9 121.4 12.9 122 12.9H126.2C126.8 12.9 127 12.9 127.2 12.7C127.4 12.5 127.4 11.9 127.4 10.8C127.4 9.8 127.4 9.5 127.2 9.3C127 9.1 126.8 9.1 126.2 9.1L121.6 8.7C120.5 8.5 119.9 8.3 119.5 7.9C118.9 7.3 118.7 6.8 118.7 4.8C118.7 2.9 118.9 2.1 119.7 1.4C120.1 1 120.8 0.8 122 0.8H126.6C127.7 0.8 128.5 1 128.9 1.4C129.5 2 129.7 2.5 129.7 5.2H127.4C127.4 3.5 127.2 3.1 127.2 3.1C127 2.9 126.8 2.9 126.2 2.9H122.4C121.8 2.9 121.6 2.9 121.4 3.1C121.2 3.3 121.2 3.9 121.2 5C121.2 6 121.2 6.3 121.4 6.5C121.6 6.7 121.8 6.7 122.4 6.7L127 7.1C128 7.1 128.7 7.3 129.1 7.9C129.7 8.5 129.9 9 129.9 11.1C129.8 12.7 129.6 13.4 128.8 14.2ZM145.7 2.6V6.8H151.4V8.7H145.7V14.8H143.4V0.8H152.9V2.5L145.7 2.6ZM169.8 8.9C169.8 12.5 169.4 13.1 168.7 13.8C167.9 14.4 167 14.6 165.1 14.6H163C161.1 14.6 160.2 14.4 159.4 13.8C158.6 13 158.3 12.3 158.3 8.9V0.7H160.6V9.4C160.6 11.9 160.8 12.2 161.2 12.5C161.4 12.7 161.8 12.9 163.5 12.9H164.8C166.3 12.9 166.7 12.9 167.1 12.5C167.5 12.1 167.5 12.1 167.5 9.4V0.7H169.8V8.9ZM188.1 14.8H185.6C185 14.8 184.8 14.6 184.5 14.2L178.8 3.8H178.4V14.8H176.1V0.8H178.8C179.4 0.8 179.6 1 179.9 1.4L185.4 11.3H185.8V0.5H188.1V14.8ZM201 0.7C202.7 0.7 203.8 0.9 204.6 1.7C205.6 2.5 206.1 4.4 206.1 7.8C206.1 11.2 205.7 12.9 204.6 13.9C203.8 14.7 202.9 14.9 201 14.9H194.5V0.9H201V0.7ZM202.7 3C202.3 2.6 201.7 2.6 201 2.6H197V12.8H201C202 12.8 202.3 12.8 202.7 12.4C203.3 11.8 203.5 10.9 203.5 7.8C203.4 4.5 203.2 3.6 202.7 3Z" fill="#8A939B"/>
</g>
<defs>
<clipPath id="clip0_941_9089">
<rect width="206" height="15" fill="white" transform="translate(0.5 0.5)"/>
</clipPath>
</defs>
</svg>
