<svg width="110" height="20" viewBox="0 0 110 20" fill="none" xmlns="http://www.w3.org/2000/svg">
<g clip-path="url(#clip0_941_9080)">
<path d="M77.1992 5.3C76.7992 5.4 76.3992 5.6 75.9992 5.9C75.5992 6.2 75.2992 6.5 74.9992 6.8C74.6992 7.2 74.4992 7.5 74.2992 8H74.1992V5.4H70.6992V18.9H74.3992V12.8C74.3992 12.2 74.4992 11.6 74.5992 11.1C74.6992 10.6 74.8992 10.1 75.1992 9.7C75.4992 9.3 75.8992 9 76.2992 8.8C76.7992 8.6 77.2992 8.5 77.9992 8.5C78.1992 8.5 78.4992 8.5 78.6992 8.5C78.8992 8.5 79.1992 8.6 79.2992 8.6V5.2C79.0992 5.1 78.7992 5 78.5992 5C78.0992 5 77.5992 5.1 77.1992 5.3Z" fill="#8A939B"/>
<path d="M91.6992 7.5C91.1992 6.8 90.3992 6.2 89.5992 5.7C88.6992 5.3 87.6992 5 86.5992 5C85.5992 5 84.5992 5.2 83.7992 5.5C82.9992 5.9 82.1992 6.4 81.5992 7C80.9992 7.6 80.4992 8.4 80.1992 9.3C79.8992 10.2 79.6992 11.1 79.6992 12.1C79.6992 13.1 79.8992 14.1 80.1992 15C80.4992 15.9 80.9992 16.6 81.5992 17.3C82.1992 17.9 82.8992 18.4 83.7992 18.8C84.6992 19.1 85.5992 19.3 86.6992 19.3C88.1992 19.3 89.4992 19 90.5992 18.3C91.6992 17.6 92.4992 16.4 92.9992 14.8H89.6992C89.5992 15.2 89.1992 15.6 88.6992 16C88.1992 16.4 87.4992 16.6 86.7992 16.6C85.7992 16.6 84.9992 16.3 84.3992 15.8C83.7992 15.3 83.4992 14.4 83.4992 13.2H93.2992C93.3992 12.2 93.2992 11.2 92.9992 10.2C92.6992 9.1 92.2992 8.3 91.6992 7.5ZM83.3992 10.7C83.3992 10.4 83.4992 10.1 83.5992 9.8C83.6992 9.5 83.8992 9.2 84.0992 8.9C84.2992 8.6 84.6992 8.4 84.9992 8.2C85.3992 8 85.8992 7.9 86.4992 7.9C87.3992 7.9 88.0992 8.1 88.4992 8.6C88.8992 9.1 89.2992 9.8 89.3992 10.7H83.3992Z" fill="#8A939B"/>
<path d="M104.901 0.299805V7.0998H104.801C104.401 6.3998 103.801 5.8998 103.101 5.5998C102.401 5.2998 101.601 5.0998 100.801 5.0998C99.8008 5.0998 98.9008 5.2998 98.2008 5.6998C97.4008 6.0998 96.8008 6.5998 96.3008 7.2998C95.8008 7.8998 95.4008 8.6998 95.2008 9.4998C94.9008 10.2998 94.8008 11.1998 94.8008 12.0998C94.8008 12.9998 94.9008 13.8998 95.2008 14.7998C95.5008 15.6998 95.8008 16.3998 96.3008 17.0998C96.8008 17.7998 97.4008 18.2998 98.2008 18.6998C99.0008 19.0998 99.9008 19.2998 100.901 19.2998C101.801 19.2998 102.601 19.0998 103.301 18.7998C104.001 18.4998 104.601 17.8998 105.001 17.1998H105.101V18.8998H108.601V0.299805H104.901ZM104.801 13.7998C104.701 14.2998 104.501 14.7998 104.301 15.1998C104.101 15.5998 103.701 15.8998 103.301 16.1998C102.901 16.3998 102.401 16.5998 101.801 16.5998C101.201 16.5998 100.701 16.4998 100.301 16.1998C99.9008 15.8998 99.6008 15.5998 99.3008 15.1998C99.0008 14.7998 98.8008 14.2998 98.7008 13.7998C98.6008 13.2998 98.5008 12.7998 98.5008 12.1998C98.5008 11.5998 98.6008 11.0998 98.7008 10.5998C98.8008 10.0998 99.0008 9.5998 99.3008 9.1998C99.6008 8.7998 99.9008 8.4998 100.301 8.1998C100.701 7.9998 101.201 7.7998 101.801 7.7998C102.401 7.7998 102.901 7.8998 103.301 8.1998C103.701 8.3998 104.001 8.7998 104.301 9.1998C104.601 9.5998 104.701 9.9998 104.801 10.5998C104.901 11.0998 105.001 11.6998 105.001 12.1998C105.001 12.6998 104.901 13.1998 104.801 13.7998Z" fill="#8A939B"/>
<path d="M48.0008 18.9C49.8008 18.9 51.2008 17.5 51.2008 15.7C51.2008 13.9 49.8008 12.5 48.0008 12.5C46.2008 12.5 44.8008 13.9 44.8008 15.7C44.8008 17.5 46.3008 18.9 48.0008 18.9Z" fill="#8A939B"/>
<path d="M68.9992 18.9H64.0992L58.9992 10.2L55.9992 13.3V18.9H52.1992V4.4C52.1992 2.9 52.4992 1.7 53.0992 1.1C53.7992 0.4 54.9992 0 56.5992 0C57.5992 0 58.5992 0.2 59.5992 0.5L59.0992 3C58.4992 2.9 57.9992 2.8 57.4992 2.8C56.8992 2.8 56.4992 3 56.2992 3.3C56.0992 3.5 56.0992 4 56.0992 4.6V8.7L63.6992 0.4H68.7992L61.7992 7.7L68.9992 18.9Z" fill="#8A939B"/>
<path d="M4.6 0.299805L12.5 12.8998H12.6V0.299805H16.5V19.1998H12.4L4.4 6.4998V19.0998H0.5V0.299805H4.6Z" fill="#8A939B"/>
<path d="M31.1004 0.299805V3.7998H22.0004V8.1998H29.9004V11.3998H22.0004V19.1998H17.9004V0.299805H31.1004Z" fill="#8A939B"/>
<path d="M32.1992 3.7998V0.299805H47.6992V3.7998H41.9992V19.1998H37.8992V3.7998H32.1992Z" fill="#8A939B"/>
</g>
<defs>
<clipPath id="clip0_941_9080">
<rect width="109" height="20" fill="white" transform="translate(0.5)"/>
</clipPath>
</defs>
</svg>
