<svg width="183" height="16" viewBox="0 0 183 16" fill="none" xmlns="http://www.w3.org/2000/svg">
<g clip-path="url(#clip0_941_9093)">
<path d="M10.9 5.30039C10.9 6.10039 10.8 6.80039 10.5 7.40039C10.2 8.00039 9.8 8.40039 9.3 8.80039C8.7 9.10039 8.1 9.30039 7.5 9.50039C6.8 9.70039 6.2 9.70039 5.5 9.70039H3.8V15.1004H0.5V0.900391H5.5C6.2 0.900391 6.9 1.00039 7.6 1.10039C8.3 1.30039 8.8 1.50039 9.3 1.90039C9.8 2.20039 10.2 2.70039 10.4 3.20039C10.7 3.80039 10.9 4.40039 10.9 5.30039ZM7.6 5.30039C7.6 5.00039 7.5 4.70039 7.4 4.50039C7.2 4.20039 7.1 4.10039 6.8 4.00039C6.6 3.80039 6.4 3.80039 6.1 3.70039C5.8 3.70039 5.5 3.70039 5.2 3.70039H3.8V7.10039H5.2C5.5 7.10039 5.8 7.10039 6.1 7.00039C6.4 6.90039 6.6 6.90039 6.9 6.70039C7.1 6.50039 7.2 6.30039 7.4 6.10039C7.5 5.90039 7.6 5.60039 7.6 5.30039Z" fill="#8A939B"/>
<path d="M22.9004 15.1004L21.8004 12.3004H16.5004L15.5004 15.1004H11.9004L17.6004 0.900391H20.8004L26.5004 15.1004H22.9004ZM19.2004 4.70039L17.5004 9.60039H20.9004L19.2004 4.70039Z" fill="#8A939B"/>
<path d="M36.8 4.6C36.5 4.2 36.1 3.9 35.7 3.7C35.2 3.5 34.8 3.4 34.4 3.4C34.2 3.4 34 3.4 33.7 3.5C33.5 3.5 33.3 3.5 33.1 3.7C32.9 3.8 32.8 4 32.6 4.1C32.5 4.3 32.5 4.5 32.5 4.8C32.5 5 32.5 5.2 32.6 5.4C32.7 5.6 32.8 5.7 33 5.8C33.2 5.9 33.4 6 33.7 6.1C34 6.2 34.2 6.3 34.6 6.4C35.1 6.6 35.5 6.7 36 6.9C36.5 7.1 37 7.3 37.4 7.7C37.8 8 38.2 8.4 38.4 8.9C38.7 9.4 38.8 10 38.8 10.7C38.8 11.5 38.7 12.2 38.4 12.8C38.1 13.4 37.7 13.9 37.2 14.3C36.7 14.7 36.2 15 35.5 15.2C34.9 15.4 34.2 15.5 33.6 15.5C32.6 15.5 31.7 15.3 30.8 15C29.9 14.6 29.1 14.1 28.5 13.5L30.7 11.2C31 11.6 31.5 12 32 12.3C32.6 12.6 33.1 12.7 33.6 12.7C33.8 12.7 34.1 12.7 34.3 12.6C34.5 12.5 34.7 12.5 34.9 12.3C35.1 12.2 35.2 12 35.3 11.8C35.4 11.6 35.5 11.4 35.5 11.1C35.5 10.8 35.4 10.6 35.3 10.4C35.2 10.2 35 10 34.7 9.9C34.5 9.7 34.2 9.6 33.9 9.5C33.6 9.4 33.2 9.2 32.7 9.1C32.3 9 31.8 8.8 31.4 8.6C31 8.4 30.6 8.1 30.3 7.8C29.9 7.5 29.7 7.1 29.5 6.6C29.3 6.1 29.2 5.6 29.2 5C29.2 4.2 29.4 3.5 29.7 3C30 2.4 30.4 2 30.9 1.6C31.4 1.2 32 1 32.6 0.8C33.2 0.6 33.8 0.5 34.5 0.5C35.3 0.5 36.1 0.6 36.9 0.9C37.7 1.2 38.4 1.6 39 2.2L36.8 4.6Z" fill="#8A939B"/>
<path d="M55.0004 13.1C54.4004 13.8 53.6004 14.4 52.8004 14.8C51.9004 15.2 50.9004 15.4 49.7004 15.4C48.6004 15.4 47.7004 15.2 46.8004 14.9C45.9004 14.5 45.1004 14 44.5004 13.4C43.8004 12.7 43.3004 11.9 43.0004 11C42.6004 10.1 42.4004 9.1 42.4004 7.9C42.4004 6.8 42.6004 5.7 43.0004 4.8C43.4004 3.9 43.9004 3.1 44.6004 2.4C45.3004 1.7 46.1004 1.2 47.0004 0.9C47.7004 0.7 48.7004 0.5 49.7004 0.5C50.7004 0.5 51.6004 0.7 52.5004 1C53.4004 1.3 54.2004 1.9 54.8004 2.5L52.6004 4.8C52.3004 4.4 51.9004 4 51.4004 3.8C50.9004 3.6 50.4004 3.5 49.9004 3.5C49.3004 3.5 48.8004 3.6 48.3004 3.8C47.8004 4 47.4004 4.3 47.1004 4.7C46.8004 5.1 46.5004 5.6 46.3004 6.1C46.1004 6.6 46.0004 7.2 46.0004 7.8C46.0004 8.4 46.1004 9 46.3004 9.6C46.5004 10.1 46.8004 10.6 47.1004 11C47.4004 11.4 47.9004 11.7 48.3004 11.9C48.8004 12.1 49.3004 12.2 49.9004 12.2C50.6004 12.2 51.1004 12.1 51.6004 11.8C52.1004 11.5 52.5004 11.2 52.8004 10.8L55.0004 13.1Z" fill="#8A939B"/>
<path d="M67.3008 15.1004L66.2008 12.3004H60.9008L59.9008 15.1004H56.3008L62.0008 0.900391H65.2008L70.9008 15.1004H67.3008ZM63.7008 4.70039L62.0008 9.60039H65.4008L63.7008 4.70039Z" fill="#8A939B"/>
<path d="M74.0996 15.1004V0.900391H77.3996V12.1004H82.6996V15.1004H74.0996Z" fill="#8A939B"/>
<path d="M104.5 13.1C103.9 13.8 103.2 14.4 102.3 14.8C101.4 15.2 100.4 15.4 99.2004 15.4C98.1004 15.4 97.2004 15.2 96.3004 14.9C95.4004 14.5 94.6004 14 94.0004 13.4C93.3004 12.7 92.8004 11.9 92.5004 11C92.1004 10.1 91.9004 9.1 91.9004 7.9C91.9004 6.8 92.1004 5.7 92.5004 4.8C92.9004 3.9 93.4004 3.1 94.1004 2.4C94.8004 1.7 95.6004 1.2 96.5004 0.9C97.2004 0.7 98.2004 0.5 99.2004 0.5C100.2 0.5 101.1 0.7 102 1C102.9 1.3 103.7 1.9 104.3 2.5L102.1 4.8C101.8 4.4 101.4 4 100.9 3.8C100.4 3.6 99.9004 3.5 99.4004 3.5C98.8004 3.5 98.3004 3.6 97.8004 3.8C97.3004 4.2 96.8004 4.5 96.5004 4.9C96.2004 5.3 95.9004 5.8 95.7004 6.3C95.5004 6.8 95.4004 7.4 95.4004 8C95.4004 8.6 95.5004 9.2 95.7004 9.8C95.9004 10.3 96.2004 10.8 96.5004 11.2C96.8004 11.6 97.3004 11.9 97.7004 12.1C98.2004 12.3 98.7004 12.4 99.3004 12.4C100 12.4 100.5 12.3 101 12C101.5 11.7 101.9 11.4 102.2 11L104.5 13.1Z" fill="#8A939B"/>
<path d="M116.8 15.1004L115.7 12.3004H110.5L109.5 15.1004H105.9L111.6 0.900391H114.8L120.5 15.1004H116.8ZM113.2 4.70039L111.5 9.60039H114.9L113.2 4.70039Z" fill="#8A939B"/>
<path d="M133.899 5.30039C133.899 6.10039 133.799 6.80039 133.499 7.40039C133.199 8.00039 132.799 8.40039 132.299 8.80039C131.799 9.10039 131.199 9.40039 130.599 9.60039C129.899 9.80039 129.299 9.80039 128.599 9.80039H126.999V15.2004H123.699V0.900391H128.699C129.399 0.900391 130.099 1.00039 130.799 1.10039C131.499 1.20039 131.999 1.50039 132.499 1.80039C132.999 2.10039 133.399 2.60039 133.599 3.10039C133.799 3.80039 133.899 4.40039 133.899 5.30039ZM130.599 5.30039C130.599 5.00039 130.499 4.70039 130.399 4.50039C130.299 4.30039 130.099 4.10039 129.899 4.00039C129.699 3.90039 129.399 3.80039 129.099 3.80039C128.799 3.80039 128.499 3.70039 128.299 3.70039H126.899V7.10039H128.299C128.599 7.10039 128.899 7.10039 129.199 7.00039C129.499 6.90039 129.699 6.90039 129.999 6.70039C130.199 6.60039 130.399 6.40039 130.499 6.20039C130.599 5.90039 130.599 5.60039 130.599 5.30039Z" fill="#8A939B"/>
<path d="M137.801 15.1004V0.900391H141.101V15.1004H137.801Z" fill="#8A939B"/>
<path d="M151.8 3.80039V15.1004H148.5V3.80039H144.6V0.900391H155.6V3.80039H151.8Z" fill="#8A939B"/>
<path d="M167.199 15.1004L166.099 12.3004H160.799L159.799 15.1004H156.199L161.899 0.900391H165.099L170.799 15.1004H167.199ZM163.499 4.70039L161.799 9.60039H165.199L163.499 4.70039Z" fill="#8A939B"/>
<path d="M173.9 15.1004V0.900391H177.2V12.1004H182.5V15.1004H173.9Z" fill="#8A939B"/>
</g>
<defs>
<clipPath id="clip0_941_9093">
<rect width="182" height="15" fill="white" transform="translate(0.5 0.5)"/>
</clipPath>
</defs>
</svg>
