<svg width="157" height="30" viewBox="0 0 157 30" fill="none" xmlns="http://www.w3.org/2000/svg">
<g clip-path="url(#clip0_941_9061)">
<path d="M26.2 15.3999C26.2 13.0999 25.5 10.8999 24.3 8.9999L28.9 4.3999L25.4 0.899902L20.8 5.4999C16.9 2.9999 11.9 2.9999 8 5.4999L3.5 0.899902L0 4.3999L4.6 8.9999C2.1 12.8999 2.1 17.8999 4.6 21.7999L0 26.3999L3.5 29.8999L8.1 25.2999C12 27.7999 17 27.7999 20.9 25.2999L25.5 29.8999L29 26.3999L24.4 21.7999C25.5 19.8999 26.2 17.6999 26.2 15.3999ZM7.6 15.3999C7.6 12.5999 9.3 10.0999 11.9 8.9999C14.5 7.9999 17.5 8.5999 19.4 10.5999C21.3 12.5999 21.9 15.5999 20.7 18.0999L16.2 13.5999L12.7 17.0999L17.2 21.5999C15.1 22.5999 12.6 22.3999 10.7 21.0999C8.8 19.8999 7.6 17.6999 7.6 15.3999Z" fill="#8A939B"/>
<path d="M51.1004 15.5002C51.1004 18.3002 49.7004 20.9002 47.1004 22.1002L48.5004 23.9002L45.7004 25.3002L43.8004 22.8002H43.7004C39.1004 22.8002 36.4004 19.4002 36.4004 15.5002C36.4004 11.6002 39.1004 8.2002 43.7004 8.2002C48.3004 8.3002 51.1004 11.6002 51.1004 15.5002ZM43.7004 19.9002C46.3004 19.9002 47.7004 17.9002 47.7004 15.5002C47.7004 13.1002 46.3004 11.1002 43.7004 11.1002C41.1004 11.1002 39.7004 13.1002 39.7004 15.5002C39.7004 17.9002 41.1004 19.9002 43.7004 19.9002ZM56.2004 22.6002C53.9004 22.6002 52.7004 21.2002 52.7004 18.7002V12.8002H55.7004V18.0002C55.7004 19.3002 56.1004 20.0002 57.3004 20.0002C58.6004 20.0002 59.1004 19.2002 59.1004 17.9002V12.8002H62.1004V22.2002H59.1004V21.0002C58.6004 22.0002 57.6004 22.6002 56.2004 22.6002ZM68.4004 22.6002C65.6004 22.6002 63.9004 20.5002 63.9004 17.6002C63.9004 14.8002 65.6004 12.6002 68.4004 12.6002C69.8004 12.6002 70.8004 13.3002 71.4004 14.2002V13.0002H74.4004V22.4002H71.4004V21.1002C70.9004 22.0002 69.7004 22.6002 68.4004 22.6002ZM69.3004 20.2002C70.8004 20.2002 71.6004 19.1002 71.6004 17.7002C71.6004 16.3002 70.8004 15.2002 69.3004 15.2002C67.9004 15.2002 67.0004 16.2002 67.0004 17.7002C67.0004 19.1002 67.9004 20.2002 69.3004 20.2002ZM76.9004 12.9002H79.9004V14.3002C80.4004 13.2002 81.5004 12.7002 83.0004 12.7002C85.3004 12.7002 86.5004 14.0002 86.5004 16.6002V22.5002H83.5004V17.6002C83.5004 16.0002 83.1004 15.3002 81.8004 15.3002C80.6004 15.3002 80.0004 16.1002 80.0004 17.5002V22.4002H77.0004L76.9004 12.9002ZM93.7004 20.1002C94.1004 20.1002 94.5004 20.1002 94.7004 20.0002V22.4002C94.3004 22.5002 93.6004 22.6002 92.7004 22.6002C91.3004 22.6002 89.3004 22.3002 89.3004 19.1002V15.3002H87.8004V13.0002H89.3004V10.2002H92.3004V13.0002H94.4004V15.4002H92.3004V18.5002C92.4004 19.8002 93.0004 20.1002 93.7004 20.1002ZM100.3 22.7002C97.5004 22.7002 95.8004 21.3002 95.8004 19.6002H98.8004C98.8004 20.3002 99.4004 20.7002 100.4 20.7002C101.1 20.7002 101.5 20.4002 101.5 19.8002C101.5 19.4002 101.3 19.1002 100.8 19.0002L98.5004 18.4002C96.9004 18.0002 96.1004 17.0002 96.1004 15.7002C96.1004 13.9002 97.7004 12.7002 100.1 12.7002C102.9 12.7002 104.3 13.8002 104.3 15.6002H101.3C101.3 14.9002 100.8 14.6002 100 14.6002C99.3004 14.6002 98.9004 14.9002 98.9004 15.4002C98.9004 15.8002 99.2004 16.1002 99.7004 16.2002L101.9 16.8002C103.4 17.2002 104.3 18.1002 104.3 19.4002C104.4 21.4002 102.9 22.7002 100.3 22.7002ZM111.2 20.1002C111.6 20.1002 112 20.1002 112.2 20.0002V22.4002C111.8 22.5002 111.1 22.6002 110.2 22.6002C108.8 22.6002 106.8 22.3002 106.8 19.1002V15.3002H105.3V13.0002H106.8V10.2002H109.8V13.0002H111.9V15.4002H109.8V18.5002C109.9 19.8002 110.5 20.1002 111.2 20.1002ZM117.8 22.6002C115 22.6002 113.3 20.5002 113.3 17.6002C113.3 14.8002 115 12.6002 117.8 12.6002C119.2 12.6002 120.2 13.3002 120.8 14.2002V13.0002H123.8V22.4002H120.8V21.1002C120.3 22.0002 119.1 22.6002 117.8 22.6002ZM118.7 20.2002C120.2 20.2002 121 19.1002 121 17.7002C121 16.3002 120.2 15.2002 118.7 15.2002C117.3 15.2002 116.4 16.2002 116.4 17.7002C116.4 19.1002 117.3 20.2002 118.7 20.2002ZM126.3 12.9002H129.3V14.3002C129.7 13.4002 130.7 12.7002 132 12.7002C133.7 12.7002 134.6 13.5002 135 14.4002C135.5 13.4002 136.6 12.7002 138 12.7002C140.7 12.7002 141.4 14.6002 141.4 16.6002V22.5002H138.4V17.2002C138.4 15.9002 137.9 15.3002 137 15.3002C136.1 15.3002 135.4 15.8002 135.4 17.6002V22.5002H132.4V17.0002C132.4 15.7002 131.9 15.2002 131 15.2002C130 15.2002 129.4 15.7002 129.4 17.5002V22.4002H126.4V12.9002H126.3ZM143.7 12.9002H146.7V14.3002C147.2 13.4002 148.4 12.7002 149.8 12.7002C152.4 12.7002 154.1 14.7002 154.1 17.7002C154.1 20.7002 152.3 22.7002 149.7 22.7002C148.3 22.7002 147.2 22.0002 146.7 21.1002V26.4002H143.7V12.9002ZM148.8 20.2002C150.1 20.2002 151 19.2002 151 17.7002C151 16.2002 150.1 15.2002 148.8 15.2002C147.4 15.2002 146.5 16.2002 146.5 17.7002C146.5 19.1002 147.5 20.2002 148.8 20.2002ZM154.9 14.9002C154.7 14.9002 154.4 14.8002 154.2 14.7002C154 14.6002 153.9 14.4002 153.8 14.2002C153.7 14.0002 153.6 13.8002 153.6 13.5002C153.6 13.3002 153.7 13.1002 153.8 12.8002C153.9 12.6002 154.1 12.5002 154.2 12.3002C154.4 12.2002 154.6 12.1002 154.9 12.1002C155.2 12.1002 155.4 12.2002 155.6 12.3002C155.8 12.4002 155.9 12.6002 156 12.8002C156.1 13.0002 156.2 13.2002 156.2 13.5002C156.2 13.7002 156.1 14.0002 156 14.2002C155.9 14.4002 155.7 14.6002 155.6 14.7002C155.4 14.9002 155.2 14.9002 154.9 14.9002ZM154.9 14.7002C155.1 14.7002 155.3 14.6002 155.4 14.5002C155.6 14.4002 155.7 14.3002 155.8 14.1002C155.9 13.9002 155.9 13.8002 155.9 13.6002C155.9 13.4002 155.8 13.2002 155.8 13.1002C155.6 12.8002 155.3 12.6002 154.9 12.6002C154.7 12.6002 154.5 12.7002 154.4 12.8002C154.2 12.9002 154.1 13.0002 154 13.2002C153.9 13.4002 153.9 13.5002 153.9 13.7002C153.9 13.9002 154 14.1002 154 14.2002C154.1 14.4002 154.2 14.5002 154.4 14.6002C154.5 14.6002 154.7 14.7002 154.9 14.7002ZM154.5 12.9002H155C155.1 12.9002 155.2 13.0002 155.3 13.0002C155.4 13.1002 155.4 13.2002 155.4 13.3002C155.4 13.4002 155.4 13.5002 155.3 13.6002C155.2 13.7002 155.2 13.7002 155.1 13.8002L155.4 14.3002H155.2L154.9 13.9002H154.6V14.3002H154.4V12.9002H154.5ZM155 13.7002C155.1 13.7002 155.2 13.7002 155.2 13.6002C155.3 13.5002 155.3 13.5002 155.3 13.4002C155.3 13.3002 155.3 13.2002 155.2 13.2002C155.1 13.1002 155.1 13.1002 155 13.1002H154.7V13.6002H155V13.7002Z" fill="#8A939B"/>
</g>
<defs>
<clipPath id="clip0_941_9061">
<rect width="157" height="30" fill="white"/>
</clipPath>
</defs>
</svg>
