<svg width="136" height="36" viewBox="0 0 136 36" fill="none" xmlns="http://www.w3.org/2000/svg">
<path d="M45.7 14.4H42V12.2H52V14.4H48.3V23.7H45.7V14.4ZM54.5 16C54.8 15.6 55.2 15.3 55.7 15C56.2 14.8 56.8 14.7 57.5 14.7V17.1C57.2 17.1 57 17.1 56.9 17.1C56.2 17.1 55.6 17.3 55.2 17.7C54.8 18.1 54.6 18.7 54.6 19.5V23.7H52V14.9H54.4L54.5 16ZM67 14.9V23.7H64.6V22.7C64.3 23.1 63.9 23.4 63.4 23.6C62.9 23.8 62.4 23.9 61.9 23.9C60.7 23.9 59.8 23.6 59.2 22.9C58.5 22.2 58.2 21.2 58.2 19.9V14.9H60.8V19.5C60.8 20.9 61.4 21.6 62.6 21.6C63.2 21.6 63.7 21.4 64.1 21C64.5 20.6 64.7 20 64.7 19.2V14.9H67ZM71.4 23.8C70.7 23.8 70 23.7 69.3 23.5C68.6 23.3 68 23.1 67.6 22.8L68.5 21C68.9 21.3 69.4 21.5 69.9 21.6C70.5 21.8 71 21.8 71.5 21.8C72.6 21.8 73.1 21.5 73.1 21C73.1 20.7 73 20.6 72.7 20.5C72.4 20.4 72 20.3 71.3 20.2C70.6 20.1 70 20 69.5 19.8C69 19.7 68.6 19.4 68.3 19C68 18.6 67.8 18.1 67.8 17.5C67.8 16.9 68 16.5 68.3 16C68.6 15.6 69.1 15.2 69.7 15C70.3 14.8 71.1 14.6 71.9 14.6C72.5 14.6 73.1 14.7 73.7 14.8C74.3 14.9 74.8 15.1 75.2 15.4L74.3 17.2C73.5 16.8 72.7 16.5 71.8 16.5C71.3 16.5 70.8 16.6 70.6 16.7C70.3 16.9 70.2 17 70.2 17.3C70.2 17.6 70.3 17.8 70.6 17.9C70.9 18 71.4 18.1 72 18.2C72.7 18.3 73.3 18.5 73.8 18.6C74.3 18.7 74.7 19 75 19.3C75.3 19.7 75.5 20.2 75.5 20.8C75.5 21.3 75.3 21.8 75 22.3C74.7 22.7 74.2 23.1 73.6 23.3C73 23.7 72.2 23.8 71.4 23.8ZM81.8 23.2C81.5 23.4 81.2 23.5 80.9 23.6C80.5 23.7 80.2 23.7 79.8 23.7C78.8 23.7 77.9 23.4 77.4 22.9C76.8 22.4 76.5 21.6 76.5 20.5V17H75.1V15H76.5V12.9H79V15H81.2V17H79V20.6C79 21 79.1 21.3 79.3 21.5C79.5 21.7 79.8 21.8 80.1 21.8C80.5 21.8 80.8 21.7 81.1 21.5L81.8 23.2ZM103.4 12.2L99.7 23.6H96.9L94.4 15.8L91.8 23.6H89L85.2 12.2H87.9L90.5 20.2L93.2 12.2H95.7L98.3 20.3L101 12.2H103.4ZM106.6 14.7C108 14.7 109 15 109.7 15.7C110.4 16.3 110.8 17.3 110.8 18.6V23.6H108.4V22.5C107.9 23.3 107 23.7 105.7 23.7C105 23.7 104.4 23.6 103.9 23.4C103.4 23.2 103 22.9 102.8 22.5C102.5 22.1 102.4 21.6 102.4 21.1C102.4 20.3 102.7 19.6 103.3 19.2C103.9 18.7 104.9 18.5 106.2 18.5H108.2C108.2 17.9 108 17.5 107.7 17.2C107.4 16.9 106.9 16.7 106.2 16.7C105.7 16.7 105.3 16.8 104.8 16.9C104.4 17 104 17.2 103.7 17.5L102.8 15.7C103.3 15.4 103.9 15.1 104.5 14.9C105.2 14.8 105.9 14.7 106.6 14.7ZM106.4 22.1C106.8 22.1 107.2 22 107.6 21.8C107.9 21.6 108.2 21.3 108.3 20.9V20H106.6C105.6 20 105 20.3 105 21C105 21.3 105.1 21.6 105.4 21.8C105.6 22 105.9 22.1 106.4 22.1ZM112.1 11.5H114.7V23.6H112.1V11.5ZM116.1 11.5H118.7V23.6H116.1V11.5ZM128.6 19.3C128.6 19.3 128.6 19.6 128.6 20H121.9C122 20.5 122.3 21 122.7 21.3C123.1 21.6 123.7 21.8 124.4 21.8C124.9 21.8 125.3 21.7 125.6 21.6C126 21.5 126.3 21.2 126.6 20.9L128 22.4C127.2 23.3 126 23.8 124.4 23.8C123.4 23.8 122.5 23.6 121.8 23.2C121 22.8 120.4 22.3 120 21.6C119.6 20.9 119.4 20.1 119.4 19.3C119.4 18.4 119.6 17.7 120 17C120.4 16.3 121 15.8 121.7 15.4C122.4 15 123.2 14.8 124.1 14.8C125 14.8 125.7 15 126.4 15.4C127.1 15.8 127.6 16.3 128 17C128.4 17.6 128.6 18.4 128.6 19.3ZM124.1 16.7C123.5 16.7 123 16.9 122.6 17.2C122.2 17.5 122 18 121.9 18.5H126.2C126.1 17.9 125.9 17.5 125.5 17.2C125.1 16.8 124.6 16.7 124.1 16.7ZM135 23.2C134.7 23.4 134.4 23.5 134.1 23.6C133.7 23.7 133.4 23.7 133 23.7C132 23.7 131.1 23.4 130.6 22.9C130 22.4 129.7 21.6 129.7 20.5V17H128.3V15H129.7V12.9H132.3V15H134.5V17H132.3V20.6C132.3 21 132.4 21.3 132.6 21.5C132.8 21.7 133.1 21.8 133.4 21.8C133.8 21.8 134.1 21.7 134.4 21.5L135 23.2Z" fill="#8A939B"/>
<path d="M23.4 1H12.3C6.1 1 1 6.1 1 12.3V23.4C1 29.7 6.1 34.7 12.3 34.7H23.4C29.7 34.7 34.7 29.6 34.7 23.4V12.3C34.7 6.1 29.7 1 23.4 1Z" stroke="#DFE5EC"/>
<path fill-rule="evenodd" clip-rule="evenodd" d="M17.3004 7.8998C17.7004 7.5998 18.3004 7.5998 18.7004 7.8998C21.4004 10.1998 24.5004 10.0998 25.7004 10.0998C25.8004 10.0998 25.8004 10.0998 25.9004 10.0998C26.2004 10.0998 26.5004 10.1998 26.7004 10.3998C26.9004 10.5998 27.0004 10.8998 27.0004 11.1998C26.9004 14.9998 26.8004 17.6998 26.5004 19.5998C26.2004 21.5998 25.7004 22.8998 25.0004 23.9998C24.3004 24.9998 23.3004 25.5998 22.3004 26.1998C22.1004 26.2998 21.9004 26.3998 21.8004 26.4998C20.9004 26.9998 19.9004 27.4998 18.8004 28.2998C18.4004 28.5998 17.9004 28.5998 17.6004 28.2998C16.4004 27.4998 15.5004 26.8998 14.6004 26.4998C14.4004 26.3998 14.2004 26.2998 14.1004 26.1998C13.1004 25.5998 12.1004 25.0998 11.4004 23.9998C10.7004 22.9998 10.2004 21.5998 9.90039 19.5998C9.60039 17.5998 9.50039 14.8998 9.40039 11.1998C9.40039 10.8998 9.50039 10.5998 9.70039 10.3998C9.90039 10.1998 10.2004 10.0998 10.5004 10.0998C10.5004 10.0998 10.6004 10.0998 10.7004 10.0998C11.5004 10.1998 14.6004 10.1998 17.3004 7.8998ZM18.0004 10.0998C15.5004 11.8998 12.8004 12.1998 11.3004 12.2998C11.4004 15.4998 11.5004 17.6998 11.8004 19.3998C12.1004 21.1998 12.5004 22.1998 12.9004 22.7998C13.3004 23.3998 13.9004 23.7998 14.9004 24.3998C15.1004 24.4998 15.2004 24.5998 15.4004 24.6998C16.1004 25.0998 17.0004 25.5998 18.0004 26.2998C19.0004 25.5998 19.9004 25.0998 20.7004 24.6998C20.9004 24.5998 21.0004 24.4998 21.2004 24.3998C22.2004 23.8998 22.8004 23.4998 23.2004 22.7998C23.7004 22.1998 24.0004 21.1998 24.3004 19.3998C24.5004 17.7998 24.7004 15.4998 24.8004 12.2998C23.2004 12.1998 20.5004 11.8998 18.0004 10.0998Z" fill="#8A939B"/>
</svg>
