<svg width="141" height="30" viewBox="0 0 141 30" fill="none" xmlns="http://www.w3.org/2000/svg">
<g clip-path="url(#clip0_945_5555)">
<path d="M29.4 0.900391H0.5V29.8004H29.4V0.900391Z" fill="#8A939B"/>
<path d="M14 17.3L9 8H11.3L14.2 13.9C14.2 14 14.3 14.1 14.4 14.2C14.5 14.3 14.5 14.4 14.6 14.6L14.7 14.7V14.8C14.8 15 14.8 15.1 14.9 15.3C15 15.4 15 15.6 15.1 15.7C15.2 15.4 15.4 15.2 15.5 14.8C15.6 14.5 15.8 14.2 16 13.9L18.8 8H20.9L15.9 17.4V23.4H14V17.3Z" fill="white"/>
<path d="M42.6008 6.5C44.0008 6.5 45.3008 6.9 46.3008 7.7L45.3008 8.9C44.4008 8.3 43.6008 7.9 42.5008 7.9C40.9008 7.9 39.6008 8.8 38.9008 10.4C38.5008 11.4 38.3008 12.6 38.3008 14.3C38.3008 15.6 38.5008 16.6 38.8008 17.4C39.6008 19.2 40.8008 20.1 42.8008 20.1C43.9008 20.1 44.8008 19.8 45.7008 19.1L46.7008 20.4C45.4008 21.2 44.1008 21.6 42.7008 21.6C41.0008 21.6 39.5008 20.9 38.4008 19.5C37.2008 18.2 36.8008 16.3 36.8008 14.1C36.8008 11.9 37.4008 10.1 38.5008 8.7C39.4008 7.3 40.9008 6.5 42.6008 6.5Z" fill="#8A939B"/>
<path d="M48.0996 16.0996C48.0996 14.3996 48.4996 12.9996 49.3996 12.0996C50.2996 11.0996 51.2996 10.5996 52.6996 10.5996C54.1996 10.5996 55.4996 11.1996 56.3996 12.3996C57.0996 13.3996 57.3996 14.6996 57.3996 16.3996C57.3996 18.2996 56.7996 19.8996 55.7996 20.7996C54.9996 21.4996 54.0996 21.8996 52.8996 21.8996C51.4996 21.8996 50.3996 21.3996 49.4996 20.3996C48.4996 19.1996 48.0996 17.7996 48.0996 16.0996ZM54.8996 13.2996C54.3996 12.3996 53.6996 11.9996 52.6996 11.9996C51.5996 11.9996 50.9996 12.3996 50.4996 13.1996C50.0996 13.7996 49.9996 14.6996 49.9996 15.9996C49.9996 17.5996 50.1996 18.7996 50.6996 19.4996C51.1996 20.1996 51.8996 20.5996 52.7996 20.5996C53.9996 20.5996 54.6996 19.9996 55.0996 18.9996C55.2996 18.3996 55.3996 17.6996 55.3996 16.6996C55.3996 14.9996 55.2996 13.8996 54.8996 13.2996Z" fill="#8A939B"/>
<path d="M60.4 13.5004C60.4 12.4004 60.3 11.6004 60 10.9004L61.6 10.5004C61.9 11.0004 62 11.6004 62 12.0004V12.1004C62.4 11.7004 62.8 11.3004 63.3 11.0004C64 10.6004 64.6 10.4004 65.1 10.4004C66 10.4004 66.7 10.8004 67.2 11.5004C67.3 11.7004 67.5 12.0004 67.6 12.2004C68.8 11.0004 69.8 10.5004 71 10.5004C71.8 10.5004 72.4 10.8004 72.9 11.3004C73.4 11.9004 73.7 12.6004 73.7 13.3004V21.3004H72V13.4004C72 12.3004 71.5 11.9004 70.7 11.9004C70.2 11.9004 69.6 12.1004 69.2 12.5004C69 12.7004 68.6 13.0004 68.1 13.4004L67.9 13.6004V21.4004H66.1V13.9004C66.1 13.2004 66 12.7004 65.8 12.6004C65.5 12.1004 65.2 12.0004 64.7 12.0004C63.9 12.0004 63.1 12.5004 62 13.4004V21.3004H60.4V13.5004Z" fill="#8A939B"/>
<path d="M76.6992 6.1002L78.4992 5.7002C78.6992 6.5002 78.7992 7.3002 78.7992 8.4002V10.8002C78.7992 11.4002 78.7992 11.8002 78.7992 12.0002C79.7992 11.0002 80.7992 10.6002 81.8992 10.6002C83.1992 10.6002 84.1992 11.1002 84.8992 12.0002C85.6992 13.0002 86.0992 14.3002 86.0992 16.0002C86.0992 17.7002 85.6992 19.1002 84.8992 20.1002C84.0992 21.2002 83.0992 21.6002 81.7992 21.6002C81.1992 21.6002 80.6992 21.5002 80.1992 21.2002C79.5992 20.9002 79.1992 20.6002 78.8992 20.2002C78.7992 20.7002 78.6992 21.1002 78.5992 21.4002H76.9992C77.1992 20.9002 77.2992 20.1002 77.2992 18.7002V8.6002C77.0992 7.5002 76.9992 6.6002 76.6992 6.1002ZM79.4992 12.7002C79.1992 12.9002 78.8992 13.2002 78.6992 13.5002V19.0002C79.3992 19.9002 80.1992 20.3002 81.2992 20.3002C82.1992 20.3002 82.7992 20.0002 83.1992 19.3002C83.6992 18.5002 83.9992 17.5002 83.9992 15.9002C83.9992 14.6002 83.7992 13.6002 83.2992 13.0002C82.8992 12.4002 82.1992 12.1002 81.2992 12.1002C80.7992 12.0002 80.0992 12.2002 79.4992 12.7002Z" fill="#8A939B"/>
<path d="M88.5 7.49961C88.5 7.09961 88.6 6.79961 88.9 6.49961C89.2 6.19961 89.5 6.09961 89.9 6.09961C90.3 6.09961 90.6 6.19961 90.9 6.49961C91.2 6.79961 91.3 7.09961 91.3 7.49961C91.3 7.89961 91.2 8.19961 90.9 8.49961C90.6 8.79961 90.3 8.89961 89.9 8.89961C89.5 8.89961 89.2 8.79961 88.9 8.49961C88.6 8.19961 88.5 7.89961 88.5 7.49961ZM88.9 21.3996V10.7996L90.6 10.4996V21.3996H88.9Z" fill="#8A939B"/>
<path d="M94.4004 13.5C94.4004 12.7 94.4004 12.2 94.3004 12.1C94.3004 11.8 94.1004 11.5 93.9004 11L95.5004 10.5C95.8004 11.1 95.9004 11.6 95.9004 12.1C97.0004 11 98.1004 10.5 99.3004 10.5C99.9004 10.5 100.4 10.6 100.8 10.9C101.3 11.2 101.7 11.6 101.9 12.1C102.1 12.5 102.2 12.9 102.2 13.4V21.5H100.6V14.3C100.6 13.4 100.5 12.9 100.2 12.6C99.9004 12.3 99.5004 12.1 99.0004 12.1C98.6004 12.1 98.0004 12.3 97.5004 12.6C96.9004 12.9 96.4004 13.3 96.1004 13.7V21.6H94.5004V13.5H94.4004Z" fill="#8A939B"/>
<path d="M106.099 13.1L105.199 11.9C106.599 10.9 108.099 10.5 109.599 10.5C111.099 10.5 112.099 11.1 112.599 12.1C112.799 12.5 112.799 13.1 112.799 13.9V14.5L112.699 18C112.699 18.1 112.699 18.3 112.699 18.5C112.699 19.1 112.699 19.5 112.799 19.8C112.899 20.2 113.199 20.5 113.599 20.7L112.699 21.9C111.899 21.6 111.399 21.1 111.299 20.4C110.299 21.4 109.299 21.8 108.199 21.8C107.099 21.8 106.299 21.5 105.599 20.9C104.999 20.4 104.699 19.6 104.699 18.7C104.699 17.4 105.199 16.6 106.099 15.9C107.099 15.2 108.499 14.9 110.199 14.9C110.499 14.9 110.699 14.9 110.999 14.9V14C110.999 13.1 110.899 12.6 110.599 12.4C110.199 12 109.799 11.8 109.199 11.8C108.599 11.8 107.899 12 107.199 12.3C106.899 12.5 106.499 12.8 106.099 13.1ZM111.199 18.8L111.299 16C110.799 16 110.499 16 110.399 16C108.899 16 107.899 16.3 107.299 16.9C106.899 17.3 106.699 17.9 106.699 18.6C106.699 19.9 107.299 20.5 108.499 20.5C109.699 20.4 110.599 19.8 111.199 18.8Z" fill="#8A939B"/>
<path d="M118.3 10.8002H121L120.5 12.1002H118.3V19.0002C118.3 19.6002 118.4 20.0002 118.6 20.3002C118.8 20.5002 119.2 20.7002 119.7 20.7002C120.1 20.7002 120.5 20.6002 120.8 20.5002L121 21.6002C120.4 21.9002 119.8 22.0002 119.2 22.0002C117.6 22.0002 116.8 21.2002 116.8 19.6002V12.3002H115.4V11.0002H116.7V10.8002C116.7 10.6002 116.8 9.8002 116.9 8.6002V8.1002L118.6 7.7002C118.3 8.8002 118.3 9.9002 118.3 10.8002Z" fill="#8A939B"/>
<path d="M122.699 16.0996C122.699 14.3996 123.099 12.9996 123.999 12.0996C124.799 11.0996 125.899 10.5996 127.299 10.5996C128.799 10.5996 130.099 11.1996 130.999 12.3996C131.699 13.3996 131.999 14.6996 131.999 16.3996C131.999 18.2996 131.399 19.8996 130.399 20.7996C129.599 21.4996 128.699 21.8996 127.499 21.8996C126.099 21.8996 124.999 21.3996 124.099 20.3996C123.199 19.1996 122.699 17.7996 122.699 16.0996ZM129.599 13.2996C129.099 12.3996 128.399 11.9996 127.399 11.9996C126.299 11.9996 125.699 12.3996 125.199 13.1996C124.799 13.7996 124.699 14.6996 124.699 15.9996C124.699 17.5996 124.899 18.7996 125.399 19.4996C125.899 20.1996 126.599 20.5996 127.499 20.5996C128.699 20.5996 129.399 19.9996 129.799 18.9996C129.999 18.3996 130.099 17.6996 130.099 16.6996C130.099 14.9996 129.899 13.8996 129.599 13.2996Z" fill="#8A939B"/>
<path d="M135.099 13.3C135.099 12.3 134.999 11.6 134.699 11L136.299 10.5C136.599 11.1 136.699 11.6 136.699 12.1V12.3C137.599 11.1 138.499 10.6 139.699 10.6C139.899 10.6 140.099 10.6 140.299 10.7L139.599 12.5C139.399 12.4 139.199 12.4 139.099 12.4C138.699 12.4 138.199 12.5 137.799 12.8C137.399 13.1 136.999 13.4 136.799 13.8C136.699 14.1 136.599 14.5 136.599 15V21.7H134.999V13.3H135.099Z" fill="#8A939B"/>
</g>
<defs>
<clipPath id="clip0_945_5555">
<rect width="140" height="30" fill="white" transform="translate(0.5)"/>
</clipPath>
</defs>
</svg>
