<svg width="32" height="32" viewBox="0 0 32 32" fill="none" xmlns="http://www.w3.org/2000/svg">
<rect width="32" height="32" rx="8" fill="#862FC0"/>
<g clip-path="url(#clip0_2504_8530)">
<path d="M22.6647 9.78283C21.4219 9.20133 20.093 8.77872 18.7036 8.53809C18.533 8.84657 18.3337 9.2615 18.1962 9.59157C16.7193 9.36946 15.256 9.36946 13.8062 9.59157C13.6688 9.2615 13.465 8.84657 13.2928 8.53809C11.902 8.77872 10.5715 9.20289 9.32867 9.78591C6.82183 13.5741 6.14226 17.2681 6.48205 20.9098C8.14471 22.1514 9.75604 22.9057 11.3402 23.3992C11.7313 22.8609 12.0801 22.2887 12.3807 21.6856C11.8083 21.4681 11.2601 21.1998 10.7422 20.8882C10.8796 20.7864 11.014 20.6799 11.1439 20.5704C14.3031 22.0481 17.7356 22.0481 20.8571 20.5704C20.9885 20.6799 21.1229 20.7864 21.2588 20.8882C20.7393 21.2013 20.1896 21.4697 19.6173 21.6872C19.9178 22.2887 20.2651 22.8625 20.6578 23.4008C22.2434 22.9072 23.8562 22.153 25.5189 20.9098C25.9176 16.6882 24.8378 13.0281 22.6647 9.78283ZM12.8111 18.6702C11.8627 18.6702 11.085 17.7848 11.085 16.7067C11.085 15.6286 11.8461 14.7417 12.8111 14.7417C13.7761 14.7417 14.5538 15.627 14.5372 16.7067C14.5387 17.7848 13.7761 18.6702 12.8111 18.6702ZM19.1899 18.6702C18.2415 18.6702 17.4638 17.7848 17.4638 16.7067C17.4638 15.6286 18.2249 14.7417 19.1899 14.7417C20.1549 14.7417 20.9326 15.627 20.916 16.7067C20.916 17.7848 20.1549 18.6702 19.1899 18.6702Z" fill="white"/>
</g>
<defs>
<clipPath id="clip0_2504_8530">
<rect width="19.2" height="19.2" fill="white" transform="translate(6.40051 6.40039)"/>
</clipPath>
</defs>
</svg>
