<svg width="20" height="20" viewBox="0 0 20 20" fill="none" xmlns="http://www.w3.org/2000/svg">
<g id="vuesax/outline/tick-circle">
<g id="tick-circle">
<path id="Vector" d="M9.99935 18.9582C5.05768 18.9582 1.04102 14.9415 1.04102 9.99984C1.04102 5.05817 5.05768 1.0415 9.99935 1.0415C14.941 1.0415 18.9577 5.05817 18.9577 9.99984C18.9577 14.9415 14.941 18.9582 9.99935 18.9582ZM9.99935 2.2915C5.74935 2.2915 2.29102 5.74984 2.29102 9.99984C2.29102 14.2498 5.74935 17.7082 9.99935 17.7082C14.2493 17.7082 17.7077 14.2498 17.7077 9.99984C17.7077 5.74984 14.2493 2.2915 9.99935 2.2915Z" fill="#08050A"/>
<path id="Vector_2" d="M8.81719 12.9832C8.65052 12.9832 8.49219 12.9165 8.37552 12.7998L6.01719 10.4415C5.77552 10.1998 5.77552 9.79984 6.01719 9.55817C6.25885 9.3165 6.65885 9.3165 6.90052 9.55817L8.81719 11.4748L13.1005 7.1915C13.3422 6.94984 13.7422 6.94984 13.9839 7.1915C14.2255 7.43317 14.2255 7.83317 13.9839 8.07484L9.25885 12.7998C9.14219 12.9165 8.98385 12.9832 8.81719 12.9832Z" fill="#04C182"/>
</g>
</g>
</svg>
