<svg width="32" height="32" viewBox="0 0 32 32" fill="none" xmlns="http://www.w3.org/2000/svg">
<rect width="32" height="32" rx="8" fill="#862FC0"/>
<g clip-path="url(#clip0_2504_8539)">
<path fill-rule="evenodd" clip-rule="evenodd" d="M16 9.0625C12.1685 9.0625 9.0625 12.1685 9.0625 16C9.0625 19.8315 12.1685 22.9375 16 22.9375C19.8315 22.9375 22.9375 19.8315 22.9375 16C22.9375 12.1685 19.8315 9.0625 16 9.0625ZM7.9375 16C7.9375 11.5472 11.5472 7.9375 16 7.9375C20.4528 7.9375 24.0625 11.5472 24.0625 16C24.0625 20.4528 20.4528 24.0625 16 24.0625C11.5472 24.0625 7.9375 20.4528 7.9375 16Z" fill="white"/>
<path fill-rule="evenodd" clip-rule="evenodd" d="M8.6875 13.75C8.6875 13.4393 8.93934 13.1875 9.25 13.1875H22.75C23.0607 13.1875 23.3125 13.4393 23.3125 13.75C23.3125 14.0607 23.0607 14.3125 22.75 14.3125H9.25C8.93934 14.3125 8.6875 14.0607 8.6875 13.75Z" fill="white"/>
<path fill-rule="evenodd" clip-rule="evenodd" d="M8.6875 18.25C8.6875 17.9393 8.93934 17.6875 9.25 17.6875H22.75C23.0607 17.6875 23.3125 17.9393 23.3125 18.25C23.3125 18.5607 23.0607 18.8125 22.75 18.8125H9.25C8.93934 18.8125 8.6875 18.5607 8.6875 18.25Z" fill="white"/>
<path fill-rule="evenodd" clip-rule="evenodd" d="M14.95 9.00097C15.4562 8.26009 16.544 8.2601 17.0501 9.00099C18.6999 11.416 19.5625 13.6881 19.5625 15.9997C19.5625 18.3113 18.6999 20.5834 17.0501 22.9984C16.544 23.7393 15.4562 23.7393 14.95 22.9984C13.3001 20.5834 12.4375 18.3113 12.4375 15.9997C12.4375 13.6881 13.3001 11.4159 14.95 9.00097ZM16.1212 9.63559C16.0617 9.54856 15.9384 9.54855 15.8789 9.63559C14.3095 11.9327 13.5625 13.9859 13.5625 15.9997C13.5625 18.0135 14.3095 20.0666 15.8789 22.3638C15.9384 22.4508 16.0617 22.4508 16.1212 22.3638C17.6905 20.0666 18.4375 18.0135 18.4375 15.9997C18.4375 13.9859 17.6905 11.9327 16.1212 9.63559Z" fill="white"/>
</g>
<defs>
<clipPath id="clip0_2504_8539">
<rect width="18" height="18" fill="white" transform="translate(7 7)"/>
</clipPath>
</defs>
</svg>
