<svg width="26" height="26" viewBox="0 0 26 26" fill="none" xmlns="http://www.w3.org/2000/svg">
<rect width="26" height="26" rx="13" fill="#862FC0"/>
<g clip-path="url(#clip0_1040_26101)">
<path fill-rule="evenodd" clip-rule="evenodd" d="M10.0465 19.0014L11.5536 14.8261L10.9257 13.2158L10.7341 14.7928L9.87061 16.8829C9.95468 17.5949 10.0003 18.2843 10.0465 19.0012V19.0014Z" fill="white"/>
<path fill-rule="evenodd" clip-rule="evenodd" d="M13.7745 14.795L13.5141 14.5925L11.7239 15.1144L10.6301 19.5016C10.7833 19.7707 10.9357 20.0404 11.0881 20.3095L12.4521 15.4342L13.5141 14.5925L15.3071 15.1116L13.7745 14.795Z" fill="white"/>
<path fill-rule="evenodd" clip-rule="evenodd" d="M13.4236 16.0503C13.6734 16.1105 13.8433 16.0699 13.9315 15.9275C13.7579 16.0279 13.5806 16.017 13.419 15.8938C13.2416 16.0389 13.1138 16.0056 12.9162 15.9275L12.798 15.8788C12.7315 15.8536 12.6543 15.8254 12.569 15.7976L11.6334 20.8728C12.2674 21.2551 12.8696 21.5885 13.5141 21.9375L15.0324 21.1132C14.5065 21.3184 14.0545 21.4931 13.5165 21.7021L13.4237 16.0503H13.4236Z" fill="white"/>
<path fill-rule="evenodd" clip-rule="evenodd" d="M12.6677 12.7342C12.5472 12.7205 10.9579 12.6708 11.2063 12.8811C11.7188 13.3076 11.4847 14.3029 11.5489 14.3527C11.8962 14.6278 12.9619 12.7616 12.6677 12.7343V12.7342Z" fill="white"/>
<path fill-rule="evenodd" clip-rule="evenodd" d="M9.92365 15.5205L10.5711 14.2952L10.5448 12.8857L9.98648 13.6156L9.94072 15.0096L9.93799 15.0863L9.93426 15.1702L9.92365 15.5205Z" fill="white"/>
<path fill-rule="evenodd" clip-rule="evenodd" d="M14.5496 9.51537C13.6465 9.6281 12.7105 9.78272 11.8341 10.0281C11.4684 10.1303 11.0976 10.253 10.7503 10.4053C10.7208 10.4181 10.7411 10.4109 10.7591 10.4086C11.3722 10.3159 12.0109 10.2489 12.6301 10.2329C12.8965 10.226 13.2178 10.226 13.4811 10.2676C13.5042 10.2713 13.5263 10.2749 13.5489 10.2794C11.5354 10.4103 3.1414 11.7915 9.54245 14.222C7.59257 13.858 6.51396 13.3463 6.50006 12.4736C6.48626 11.3172 9.06045 10.7261 9.965 10.5463C10.0662 10.5262 10.1672 10.4897 10.2683 10.4633C10.3071 10.4538 10.321 10.4478 10.3566 10.4314C10.4378 10.3944 10.3968 10.3976 10.3362 10.3967C10.2859 10.3963 10.1838 10.3976 10.2267 10.321C10.2484 10.2826 10.2771 10.2398 10.3002 10.201C10.5744 9.74668 10.8011 9.26777 11.0122 8.78232C11.0426 8.71161 11.8152 6.71231 12.095 6.04814C12.1259 5.97467 12.1582 5.89443 12.1924 5.8228C12.2326 5.73706 12.3891 5.39762 12.4468 5.28777C12.6333 4.93146 12.8933 4.51144 13.2239 4.2705C13.7586 3.88274 14.3048 4.09211 14.7883 4.4498C14.3594 4.20989 13.8186 4.06985 13.4436 4.48033C13.2885 4.64954 13.1948 4.88313 13.1449 5.10387C13.1245 5.1933 13.1749 5.19651 13.1186 5.31784C13.0937 5.37168 13.0955 5.39406 13.0899 5.45284C13.0443 5.94919 13.1139 6.48882 13.2211 6.97415C13.0027 6.81861 12.8738 6.67168 12.8347 6.53301C12.7626 7.19902 13.1011 7.59677 13.8491 7.72591C12.8176 7.92886 12.1212 8.52554 11.7602 9.51537C12.6795 9.32057 13.6303 9.32057 14.5496 9.51537Z" fill="white"/>
<path fill-rule="evenodd" clip-rule="evenodd" d="M15.8389 12.8191C15.5614 12.9788 15.2742 13.3728 15.2539 14.1264C15.1357 14.1694 15.0803 14.2528 14.7778 13.8669C15.1334 14.4321 15.3683 14.625 15.4842 14.4439C15.4131 13.6425 15.5313 13.1001 15.8388 12.8191H15.8389Z" fill="white"/>
<path fill-rule="evenodd" clip-rule="evenodd" d="M17.0384 13.6157L16.964 15.0955L16.644 14.721C16.7908 14.9774 16.9446 15.278 17.1021 15.5207L17.0384 13.6157Z" fill="white"/>
<path fill-rule="evenodd" clip-rule="evenodd" d="M16.1548 16.7007L16.9794 19.0015C17.0044 18.5244 17.0625 17.8183 17.1553 16.8832C17.0718 17.3307 16.9892 17.7782 16.9055 18.2257L16.1548 16.7008V16.7007Z" fill="white"/>
<path fill-rule="evenodd" clip-rule="evenodd" d="M14.8609 16.4648C15.2201 17.7458 15.5756 19.0294 15.9376 20.3089L16.3944 19.501C16.3344 19.5572 16 19.8528 15.9857 19.8655C15.9857 19.8655 15.6093 18.9094 14.8609 16.4648Z" fill="white"/>
<path fill-rule="evenodd" clip-rule="evenodd" d="M16.2498 10.3555C14.9961 8.30194 13.5121 3.92373 16.1939 6.41158C15.9483 5.46008 15.5115 5.07186 15.0387 4.65356C15.4694 5.13936 15.7511 5.5107 15.8601 5.88882C15.6103 5.63605 15.1948 5.4253 14.8669 5.44998C14.9043 5.30041 15.0419 5.2041 15.1416 5.16668C14.4227 5.20226 14.2504 6.08534 14.6983 7.43149C14.3723 7.05876 14.1618 6.56436 13.978 6.08901C14.0662 7.18652 15.4815 9.48003 16.2498 10.3554V10.3555Z" fill="white"/>
<path fill-rule="evenodd" clip-rule="evenodd" d="M14.9061 10.4469C17.737 10.7051 19.8417 11.6128 19.8417 12.4499C19.8417 13.5264 17.998 13.9192 17.2707 14.222C19.2206 13.858 20.3126 13.3461 20.3126 12.4735C20.3126 11.6009 17.9933 10.6425 14.9061 10.4468V10.4469Z" fill="white"/>
<path fill-rule="evenodd" clip-rule="evenodd" d="M12.711 14.0601C12.9742 14.0478 12.8611 13.8398 12.9174 13.5547C12.8416 13.6332 12.3882 14.0601 12.711 14.0601ZM13.2369 13.5446C13.0019 13.8068 13.1164 14.1339 13.4797 14.1431C13.7928 14.1509 14.2259 14.0144 14.3566 14.0263C14.4055 14.0314 14.449 14.066 14.4692 14.1167C14.4895 14.1673 14.484 14.2262 14.4549 14.2713C14.5952 14.1978 14.6747 14.0272 14.6493 13.8548C14.6031 13.5451 14.4037 13.6126 14.2065 13.4301C13.7799 12.9675 13.7974 11.9631 13.7356 11.7122C13.7195 11.7888 13.7083 11.8947 13.6968 12.0177C13.6525 12.4798 13.599 13.1892 13.2369 13.5444V13.5446Z" fill="white"/>
</g>
<defs>
<clipPath id="clip0_1040_26101">
<rect width="13.8125" height="17.875" fill="white" transform="translate(6.5 4.0625)"/>
</clipPath>
</defs>
</svg>
