<svg width="28" height="28" viewBox="0 0 28 28" fill="none" xmlns="http://www.w3.org/2000/svg">
<g filter="url(#filter0_b_206_8730)">
<rect width="28" height="28" rx="14" fill="black" fill-opacity="0.05"/>
<path fill-rule="evenodd" clip-rule="evenodd" d="M14.0005 7.05738L7.99414 10.5288V17.4717L14.0005 20.9431L20.0069 17.4717V10.5288L14.0005 7.05738ZM14.2527 5.3079C14.0967 5.21768 13.9043 5.21768 13.7482 5.3079L6.60673 9.43537C6.45063 9.52561 6.35449 9.69236 6.35449 9.87275V18.1277C6.35449 18.3081 6.45063 18.4749 6.60673 18.5651L13.7482 22.6926C13.9043 22.7828 14.0967 22.7828 14.2527 22.6926L21.3943 18.5651C21.5504 18.4749 21.6465 18.3081 21.6465 18.1277V9.87275C21.6465 9.69236 21.5504 9.52561 21.3943 9.43537L14.2527 5.3079Z" fill="#FF9211"/>
<path d="M13.9997 9.57202L10.1689 11.7861V16.2142L13.9745 18.4137C13.9901 18.4227 13.9997 18.4394 13.9997 18.4574V19.2156C13.9997 19.2544 13.9577 19.2788 13.9241 19.2593L9.60132 16.7609C9.48426 16.6933 9.41211 16.5682 9.41211 16.4329V11.5674C9.41211 11.432 9.48426 11.307 9.60132 11.2393L13.8105 8.8066C13.9276 8.73895 14.0719 8.73895 14.1889 8.8066L18.5289 11.3059C18.5623 11.3251 18.5626 11.3732 18.5295 11.3928C18.2734 11.5449 18.1422 11.6126 17.8557 11.7721C17.8402 11.7807 17.8212 11.7806 17.8058 11.7718L13.9997 9.57202Z" fill="#FF9211"/>
<path d="M14.6309 14.0933C14.6309 14.0746 14.6411 14.0575 14.6576 14.0487L18.4666 12.0192C18.5002 12.0013 18.5408 12.0256 18.5408 12.0638V17.0009C18.5408 17.019 18.5312 17.0356 18.5156 17.0446L14.7067 19.2586C14.673 19.2782 14.6309 19.2539 14.6309 19.215V14.0933Z" fill="#FF9211"/>
</g>
<defs>
<filter id="filter0_b_206_8730" x="-12" y="-12" width="52" height="52" filterUnits="userSpaceOnUse" color-interpolation-filters="sRGB">
<feFlood flood-opacity="0" result="BackgroundImageFix"/>
<feGaussianBlur in="BackgroundImageFix" stdDeviation="6"/>
<feComposite in2="SourceAlpha" operator="in" result="effect1_backgroundBlur_206_8730"/>
<feBlend mode="normal" in="SourceGraphic" in2="effect1_backgroundBlur_206_8730" result="shape"/>
</filter>
</defs>
</svg>
