<svg width="24" height="24" viewBox="0 0 24 24" fill="none" xmlns="http://www.w3.org/2000/svg">
<path d="M4.05188 14.439C5.38983 14.439 6.47854 13.3508 6.47854 12.0126C6.47854 10.6744 5.38983 9.58594 4.05188 9.58594C2.71394 9.58594 1.625 10.6744 1.625 12.0126C1.625 13.3508 2.71394 14.439 4.05188 14.439Z" fill="white"/>
<path d="M11.9049 14.439C13.2427 14.439 14.3314 13.3508 14.3314 12.0126C14.3314 10.6744 13.2436 9.58594 11.9049 9.58594C10.5666 9.58594 9.47852 10.6744 9.47852 12.0126C9.47852 13.3508 10.567 14.439 11.9049 14.439Z" fill="white"/>
<path d="M19.8863 14.439C21.2246 14.439 22.3128 13.3508 22.3128 12.0126C22.3128 10.6744 21.2246 9.58594 19.8863 9.58594C18.5481 9.58594 17.459 10.6744 17.459 12.0126C17.459 13.3508 18.5477 14.439 19.8863 14.439Z" fill="white"/>
</svg>
