<svg width="272" height="55" viewBox="0 0 272 55" fill="none" xmlns="http://www.w3.org/2000/svg">
<g clip-path="url(#clip0_1074_9560)">
<path fill-rule="evenodd" clip-rule="evenodd" d="M16.663 45.9463L21.5189 33.1049L19.4957 28.1523L18.8784 33.0025L16.0962 39.4308C16.3671 41.6207 16.5142 43.7408 16.663 45.9459V45.9463Z" fill="white"/>
<path fill-rule="evenodd" clip-rule="evenodd" d="M28.6744 33.0075L27.8353 32.3848L22.0673 33.9897L18.543 47.4832C19.0368 48.3107 19.5278 49.14 20.0187 49.9679L24.4136 34.9733L27.8353 32.3848L33.6125 33.9812L28.6744 33.0075Z" fill="white"/>
<path fill-rule="evenodd" clip-rule="evenodd" d="M27.5439 36.8698C28.3488 37.0552 28.8962 36.9302 29.1805 36.4924C28.6211 36.801 28.0497 36.7674 27.5291 36.3886C26.9577 36.8349 26.5457 36.7325 25.909 36.4924L25.5281 36.3424C25.314 36.2651 25.0653 36.1782 24.7902 36.0928L21.7759 51.702C23.8185 52.8777 25.7588 53.9033 27.8356 54.9765L32.7274 52.4413C31.0329 53.0726 29.5766 53.6099 27.8433 54.2524L27.5442 36.8698H27.5439Z" fill="white"/>
<path fill-rule="evenodd" clip-rule="evenodd" d="M25.1085 26.6691C24.7201 26.6271 19.5994 26.4742 20.3997 27.121C22.0511 28.4326 21.2967 31.4938 21.5037 31.6471C22.6225 32.493 26.0562 26.7535 25.1085 26.6694V26.6691Z" fill="white"/>
<path fill-rule="evenodd" clip-rule="evenodd" d="M16.2671 35.2392L18.3531 31.4708L18.2684 27.1357L16.4695 29.3804L16.3221 33.6678L16.3133 33.9037L16.3013 34.1617L16.2671 35.2392Z" fill="white"/>
<path fill-rule="evenodd" clip-rule="evenodd" d="M31.172 16.7708C28.2621 17.1175 25.2464 17.593 22.4225 18.3478C21.2441 18.6621 20.0494 19.0395 18.9306 19.508C18.8354 19.5471 18.901 19.5249 18.9588 19.5178C20.9344 19.2329 22.9922 19.0268 24.9871 18.9777C25.8456 18.9565 26.8809 18.9565 27.7292 19.0843C27.8036 19.0956 27.8748 19.1069 27.9478 19.1207C21.46 19.5231 -5.5857 23.7713 15.0387 31.2464C8.75614 30.1269 5.28081 28.553 5.23602 25.8692C5.19158 22.3126 13.4857 20.4944 16.4002 19.9415C16.7261 19.8797 17.0517 19.7674 17.3776 19.6862C17.5025 19.6569 17.5473 19.6386 17.6619 19.5881C17.9236 19.4744 17.7913 19.4843 17.5963 19.4815C17.434 19.4801 17.1053 19.4843 17.2436 19.2485C17.3134 19.1305 17.4058 18.9989 17.4802 18.8795C18.3638 17.4822 19.0943 16.0093 19.7743 14.5162C19.8724 14.2987 22.3615 8.14973 23.263 6.107C23.3629 5.88105 23.4669 5.63427 23.577 5.41397C23.7064 5.15024 24.2108 4.10628 24.3967 3.76842C24.9977 2.67256 25.8354 1.38076 26.9006 0.639716C28.6233 -0.552876 30.3834 0.0910816 31.941 1.19118C30.559 0.453308 28.8166 0.0225905 27.6085 1.28509C27.1087 1.80548 26.8068 2.52393 26.646 3.20284C26.5804 3.47786 26.7426 3.48775 26.5613 3.86092C26.4809 4.02649 26.4869 4.09534 26.4689 4.2761C26.3218 5.80267 26.5461 7.46235 26.8915 8.95503C26.1878 8.47665 25.7726 8.02475 25.6464 7.59827C25.4143 9.64665 26.5049 10.87 28.915 11.2671C25.5913 11.8913 23.3477 13.7265 22.1844 16.7708C25.1466 16.1717 28.2099 16.1717 31.172 16.7708Z" fill="white"/>
<path fill-rule="evenodd" clip-rule="evenodd" d="M35.3261 26.9326C34.432 27.4237 33.5064 28.6357 33.4412 30.9535C33.0603 31.0855 32.8818 31.3422 31.9072 30.1552C33.0529 31.8936 33.8098 32.4868 34.1833 31.93C33.954 29.465 34.335 27.7969 35.3258 26.9326H35.3261Z" fill="#6A3190"/>
<path fill-rule="evenodd" clip-rule="evenodd" d="M39.1904 29.3809L38.9509 33.932L37.9199 32.7803C38.3929 33.5687 38.8885 34.4933 39.3957 35.2397L39.1904 29.3809Z" fill="#6A3190"/>
<path fill-rule="evenodd" clip-rule="evenodd" d="M36.3438 38.8711L39.0008 45.9476C39.0812 44.48 39.2685 42.3084 39.5676 39.4324C39.2985 40.8086 39.0322 42.1851 38.7627 43.5613L36.3438 38.8714V38.8711Z" fill="#6A3190"/>
<path fill-rule="evenodd" clip-rule="evenodd" d="M32.1748 38.1445C33.3321 42.0842 34.4777 46.032 35.6441 49.9674L37.1157 47.4826C36.9224 47.6553 35.8452 48.5644 35.799 48.6035C35.799 48.6035 34.5863 45.663 32.1748 38.1445Z" fill="#6A3190"/>
<path fill-rule="evenodd" clip-rule="evenodd" d="M36.6497 19.3553C32.6104 13.0392 27.8289 -0.426313 36.4698 7.22527C35.6783 4.29887 34.2709 3.10486 32.7476 1.81836C34.1355 3.31245 35.043 4.45456 35.3943 5.6175C34.5894 4.84009 33.2505 4.19189 32.1941 4.2678C32.3144 3.80778 32.7578 3.51157 33.0791 3.39648C30.7628 3.50592 30.2076 6.22191 31.651 10.3621C30.6006 9.21575 29.9223 7.69518 29.3301 6.23321C29.614 9.60869 34.1743 16.6626 36.6497 19.3549V19.3553Z" fill="#6A3190"/>
<path fill-rule="evenodd" clip-rule="evenodd" d="M32.3203 19.6361C41.4416 20.4301 48.2229 23.222 48.2229 25.7964C48.2229 29.1073 42.2825 30.3154 39.939 31.2467C46.2216 30.1272 49.7403 28.553 49.7403 25.8691C49.7403 23.1853 42.2673 20.2377 32.3203 19.6357V19.6361Z" fill="#6A3190"/>
<path fill-rule="evenodd" clip-rule="evenodd" d="M25.2479 30.7486C26.0958 30.7108 25.7315 30.0711 25.9128 29.1941C25.6687 29.4356 24.2077 30.7486 25.2479 30.7486ZM26.9424 29.163C26.1851 29.9697 26.554 30.9756 27.7247 31.0038C28.7335 31.0278 30.1288 30.6081 30.55 30.6448C30.7076 30.6603 30.8476 30.7669 30.9129 30.9226C30.9782 31.0783 30.9605 31.2594 30.8667 31.3982C31.3189 31.1722 31.5749 30.6476 31.4931 30.1173C31.3443 29.1648 30.7016 29.3724 30.0664 28.811C28.6918 27.3883 28.7483 24.2991 28.549 23.5273C28.4971 23.7632 28.4612 24.0887 28.4241 24.4672C28.2813 25.8882 28.1088 28.07 26.9424 29.1627V29.163Z" fill="white"/>
</g>
<path d="M68.0711 25.1294L63.4082 9.58625H67.2496L69.581 17.7575C69.6847 18.1276 69.7735 18.505 69.8475 18.8899C69.9363 19.26 70.0029 19.6153 70.0473 19.9557C70.1065 20.2962 70.1509 20.6145 70.1806 20.9105C70.2102 21.1918 70.2398 21.4286 70.2694 21.6211H69.7809C69.8697 21.0733 69.9437 20.5848 70.0029 20.1556C70.0769 19.7263 70.1583 19.3266 70.2472 18.9565C70.336 18.5716 70.447 18.172 70.5802 17.7575L72.8895 11.6069H75.9093L78.1741 17.7575C78.3518 18.246 78.4998 18.7049 78.6182 19.1342C78.7367 19.5634 78.8255 19.9779 78.8847 20.3776C78.9587 20.7625 79.0179 21.1474 79.0623 21.5322L78.6182 21.5989C78.6478 21.3324 78.67 21.0881 78.6848 20.8661C78.6997 20.6293 78.7145 20.4072 78.7293 20.2C78.7589 19.9779 78.7885 19.7485 78.8181 19.5116C78.8477 19.2748 78.8921 19.0157 78.9513 18.7345C79.0105 18.4384 79.0919 18.1054 79.1956 17.7353L81.5048 9.58625H85.2574L80.5944 25.1294H77.7079L74.0219 16.181L74.4438 16.2254L71.0465 25.1294H68.0711Z" fill="white"/>
<path d="M87.0152 25.1294V21.9541H89.6353V12.7615H87.0152V9.58625H96.0524V12.7615H93.41V21.9541H96.0524V25.1294H87.0152Z" fill="white"/>
<path d="M99.0208 25.1294V22.6203L107.37 11.518L108.68 13.0501H99.5981V9.58625H111.322V12.0731L103.018 23.1976L101.685 21.8209H111.566V25.1294H99.0208Z" fill="white"/>
<path d="M112.823 25.1294L118.974 9.58625H122.172L128.278 25.1294H124.459L121.528 17.2468C121.409 16.9359 121.291 16.6029 121.172 16.2476C121.054 15.8923 120.935 15.5296 120.817 15.1596C120.699 14.7747 120.58 14.4046 120.462 14.0493C120.358 13.6793 120.269 13.3388 120.195 13.0279L120.861 13.0057C120.773 13.3758 120.669 13.7385 120.551 14.0938C120.447 14.449 120.336 14.8043 120.218 15.1596C120.114 15.5 119.995 15.8479 119.862 16.2032C119.729 16.5436 119.603 16.8989 119.485 17.269L116.554 25.1294H112.823ZM115.754 22.154L116.931 19.3118H124.081L125.236 22.154H115.754Z" fill="white"/>
<path d="M130.217 25.1294V9.58625H137.211C138.203 9.58625 139.099 9.8009 139.898 10.2302C140.712 10.6595 141.349 11.2516 141.808 12.0065C142.267 12.7467 142.496 13.5905 142.496 14.5378C142.496 15.5148 142.267 16.3956 141.808 17.1802C141.349 17.9499 140.72 18.5568 139.92 19.0009C139.121 19.445 138.218 19.6671 137.211 19.6671H133.814V25.1294H130.217ZM138.832 25.1294L134.88 18.1128L138.743 17.5576L143.14 25.1294H138.832ZM133.814 16.7805H136.878C137.263 16.7805 137.596 16.6991 137.878 16.5362C138.174 16.3586 138.396 16.1144 138.544 15.8035C138.706 15.4926 138.788 15.1374 138.788 14.7377C138.788 14.338 138.699 13.9901 138.521 13.6941C138.344 13.3832 138.085 13.1464 137.744 12.9835C137.419 12.8207 137.019 12.7393 136.545 12.7393H133.814V16.7805Z" fill="white"/>
<path d="M145.808 25.1294V9.58625H152.314C153.454 9.58625 154.497 9.77869 155.445 10.1636C156.392 10.5336 157.206 11.0665 157.887 11.7623C158.583 12.458 159.116 13.2796 159.486 14.227C159.856 15.1744 160.041 16.218 160.041 17.3578C160.041 18.4976 159.856 19.5486 159.486 20.5108C159.116 21.4582 158.583 22.2798 157.887 22.9755C157.206 23.6565 156.392 24.1894 155.445 24.5742C154.497 24.9443 153.454 25.1294 152.314 25.1294H145.808ZM149.583 22.5536L149.072 21.7987H152.203C152.824 21.7987 153.38 21.6951 153.868 21.4878C154.356 21.2658 154.771 20.9623 155.111 20.5774C155.467 20.1926 155.741 19.7263 155.933 19.1786C156.125 18.6309 156.222 18.0239 156.222 17.3578C156.222 16.6917 156.125 16.0848 155.933 15.537C155.741 14.9893 155.467 14.523 155.111 14.1382C154.771 13.7533 154.356 13.4572 153.868 13.25C153.38 13.0279 152.824 12.9169 152.203 12.9169H149.005L149.583 12.2064V22.5536Z" fill="white"/>
<path d="M177.289 25.3514C176.045 25.3514 174.92 25.1516 173.914 24.7519C172.907 24.3522 172.041 23.7897 171.316 23.0643C170.59 22.339 170.035 21.4878 169.65 20.5108C169.265 19.519 169.073 18.4458 169.073 17.2912C169.073 16.1366 169.273 15.0781 169.673 14.116C170.087 13.139 170.672 12.2878 171.427 11.5624C172.182 10.8371 173.07 10.2746 174.091 9.87491C175.127 9.47523 176.252 9.27539 177.466 9.27539C178.325 9.27539 179.132 9.38641 179.887 9.60846C180.656 9.8305 181.352 10.134 181.974 10.5188C182.596 10.9037 183.121 11.3478 183.55 11.8511L181.263 14.2714C180.893 13.9161 180.508 13.6201 180.109 13.3832C179.724 13.1464 179.309 12.9613 178.865 12.8281C178.421 12.6801 177.947 12.6061 177.444 12.6061C176.793 12.6061 176.193 12.7245 175.646 12.9613C175.113 13.1982 174.639 13.5312 174.224 13.9605C173.825 14.375 173.514 14.8709 173.292 15.4482C173.07 16.0107 172.959 16.6251 172.959 17.2912C172.959 17.9573 173.077 18.579 173.314 19.1564C173.551 19.7337 173.877 20.237 174.291 20.6663C174.706 21.0807 175.194 21.4138 175.757 21.6655C176.334 21.9023 176.948 22.0207 177.6 22.0207C178.058 22.0207 178.488 21.9467 178.887 21.7987C179.302 21.6507 179.657 21.4508 179.953 21.1992C180.249 20.9475 180.486 20.6515 180.664 20.311C180.841 19.9557 180.93 19.5782 180.93 19.1786V18.6013L181.419 19.3562H177.133V16.403H184.438C184.468 16.5658 184.49 16.7879 184.505 17.0691C184.52 17.3504 184.527 17.6243 184.527 17.8907C184.542 18.1572 184.549 18.357 184.549 18.4902C184.549 19.4968 184.364 20.422 183.994 21.2658C183.639 22.0947 183.136 22.8127 182.484 23.4196C181.833 24.0265 181.063 24.5002 180.175 24.8407C179.287 25.1812 178.325 25.3514 177.289 25.3514Z" fill="white"/>
<path d="M185.248 25.1294L191.399 9.58625H194.596L200.702 25.1294H196.883L193.952 17.2468C193.834 16.9359 193.715 16.6029 193.597 16.2476C193.479 15.8923 193.36 15.5296 193.242 15.1596C193.123 14.7747 193.005 14.4046 192.886 14.0493C192.783 13.6793 192.694 13.3388 192.62 13.0279L193.286 13.0057C193.197 13.3758 193.094 13.7385 192.975 14.0938C192.872 14.449 192.761 14.8043 192.642 15.1596C192.539 15.5 192.42 15.8479 192.287 16.2032C192.154 16.5436 192.028 16.8989 191.909 17.269L188.978 25.1294H185.248ZM188.179 22.154L189.356 19.3118H196.506L197.66 22.154H188.179Z" fill="white"/>
<path d="M202.642 25.1294V9.58625H206.416V21.7987H213.344V25.1294H202.642Z" fill="white"/>
<path d="M216.172 25.1294V9.58625H219.947V21.7987H226.875V25.1294H216.172Z" fill="white"/>
<path d="M229.703 25.1294V9.58625H240.539V12.8059H233.367V21.9097H240.761V25.1294H229.703ZM231.48 18.7567V15.6925H239.54V18.7567H231.48Z" fill="white"/>
<path d="M244.015 25.1294V9.58625H251.009C252.001 9.58625 252.896 9.8009 253.696 10.2302C254.51 10.6595 255.147 11.2516 255.605 12.0065C256.064 12.7467 256.294 13.5905 256.294 14.5378C256.294 15.5148 256.064 16.3956 255.605 17.1802C255.147 17.9499 254.517 18.5568 253.718 19.0009C252.919 19.445 252.016 19.6671 251.009 19.6671H247.612V25.1294H244.015ZM252.63 25.1294L248.678 18.1128L252.541 17.5576L256.938 25.1294H252.63ZM247.612 16.7805H250.676C251.061 16.7805 251.394 16.6991 251.675 16.5362C251.971 16.3586 252.193 16.1144 252.341 15.8035C252.504 15.4926 252.586 15.1374 252.586 14.7377C252.586 14.338 252.497 13.9901 252.319 13.6941C252.142 13.3832 251.882 13.1464 251.542 12.9835C251.216 12.8207 250.817 12.7393 250.343 12.7393H247.612V16.7805Z" fill="white"/>
<path d="M262.519 25.1294V17.38L262.674 18.468L256.39 9.58625H260.676L265.472 16.4696L263.518 16.403L267.848 9.58625H272L265.982 18.7123L266.316 17.2024V25.1294H262.519Z" fill="white"/>
<path d="M70.4351 45.8104V34.722H71.9716L78.7514 43.7987L78.4979 43.9412C78.4557 43.6772 78.4187 43.3921 78.387 43.0858C78.3554 42.769 78.3237 42.4364 78.292 42.0879C78.2709 41.7288 78.2498 41.3539 78.2286 40.9632C78.2181 40.5619 78.2075 40.1448 78.1969 39.7118C78.1864 39.2788 78.1811 38.83 78.1811 38.3653V34.722H79.8919V45.8104H78.3237L71.6548 37.0664L71.829 36.8446C71.8818 37.4888 71.9241 38.038 71.9558 38.4921C71.998 38.9356 72.0297 39.3158 72.0508 39.6326C72.0825 39.9388 72.1036 40.1923 72.1142 40.3929C72.1247 40.583 72.13 40.7414 72.13 40.8681C72.1406 40.9949 72.1458 41.1058 72.1458 41.2008V45.8104H70.4351Z" fill="#6A3190"/>
<path d="M86.1643 45.8104V34.722H87.8751V45.8104H86.1643ZM86.9246 41.0899V39.4425H92.6431V41.0899H86.9246ZM86.9246 36.3694V34.722H93.3559V36.3694H86.9246Z" fill="#6A3190"/>
<path d="M101.2 45.8104V36.3694H98.0956V34.722H106.111V36.3694H102.911V45.8104H101.2Z" fill="#6A3190"/>
<path d="M118.996 45.8104V34.722H120.675L124.715 41.2958L123.907 41.28L127.994 34.722H129.578V45.8104H127.867V41.2642C127.867 40.3137 127.888 39.4583 127.93 38.698C127.983 37.9376 128.068 37.1826 128.184 36.4328L128.406 37.0189L124.778 42.6265H123.733L120.216 37.0822L120.39 36.4328C120.507 37.1403 120.586 37.869 120.628 38.6188C120.681 39.358 120.707 40.2398 120.707 41.2642V45.8104H118.996Z" fill="#6A3190"/>
<path d="M134.698 45.8104L138.991 34.722H140.734L144.995 45.8104H143.173L140.639 39.1257C140.607 39.0518 140.544 38.8722 140.449 38.5871C140.364 38.302 140.264 37.9852 140.148 37.6367C140.031 37.2882 139.926 36.9714 139.831 36.6862C139.736 36.3905 139.672 36.2005 139.641 36.116L140.005 36.1001C139.942 36.2797 139.863 36.5067 139.767 36.7813C139.683 37.0558 139.588 37.3463 139.482 37.6525C139.387 37.9588 139.292 38.2492 139.197 38.5237C139.102 38.7877 139.023 39.0095 138.96 39.189L136.441 45.8104H134.698ZM136.599 43.0541L137.233 41.4067H142.27L142.999 43.0541H136.599Z" fill="#6A3190"/>
<path d="M150.114 45.8104V34.722H154.835C155.469 34.722 156.049 34.8804 156.577 35.1972C157.116 35.5035 157.544 35.9259 157.861 36.4645C158.177 36.9925 158.336 37.5891 158.336 38.2544C158.336 38.8564 158.177 39.4161 157.861 39.9336C157.544 40.451 157.121 40.8681 156.593 41.185C156.065 41.4912 155.479 41.6443 154.835 41.6443H151.825V45.8104H150.114ZM156.704 45.8104L153.885 40.8048L155.643 40.4088L158.779 45.8263L156.704 45.8104ZM151.825 39.9969H154.993C155.3 39.9969 155.574 39.923 155.817 39.7751C156.06 39.6167 156.25 39.4055 156.387 39.1415C156.525 38.867 156.593 38.566 156.593 38.2386C156.593 37.869 156.504 37.5469 156.324 37.2723C156.155 36.9872 155.912 36.7654 155.595 36.607C155.289 36.4486 154.941 36.3694 154.55 36.3694H151.825V39.9969Z" fill="#6A3190"/>
<path d="M165.722 42.4522L165.627 40.5355L171.441 34.722H173.69L165.722 42.4522ZM164.297 45.8104V34.722H166.008V45.8104H164.297ZM171.647 45.8104L167.402 40.1395L168.669 39.0465L173.785 45.8104H171.647Z" fill="#6A3190"/>
<path d="M179.067 45.8104V34.722H186.053V36.3694H180.778V44.163H186.053V45.8104H179.067ZM179.843 40.9474V39.2999H185.181V40.9474H179.843Z" fill="#6A3190"/>
<path d="M194.072 45.8104V36.3694H190.967V34.722H198.983V36.3694H195.783V45.8104H194.072Z" fill="#6A3190"/>
<path d="M204.26 45.8104V34.722H208.775C209.377 34.722 209.921 34.8751 210.406 35.1814C210.903 35.4771 211.299 35.8836 211.594 36.4011C211.89 36.9186 212.038 37.4941 212.038 38.1277C212.038 38.7613 211.89 39.3369 211.594 39.8543C211.299 40.3718 210.903 40.7889 210.406 41.1058C209.921 41.412 209.377 41.5651 208.775 41.5651H205.971V45.8104H204.26ZM205.971 39.9177H208.743C209.028 39.9177 209.287 39.8385 209.519 39.6801C209.752 39.5111 209.936 39.2946 210.074 39.0306C210.222 38.7561 210.295 38.4551 210.295 38.1277C210.295 37.8004 210.222 37.5047 210.074 37.2407C209.936 36.9766 209.752 36.7654 209.519 36.607C209.287 36.4486 209.028 36.3694 208.743 36.3694H205.971V39.9177Z" fill="#6A3190"/>
<path d="M217.468 45.8104V34.722H219.179V44.163H224.374V45.8104H217.468Z" fill="#6A3190"/>
<path d="M228.962 45.8104L233.255 34.722H234.998L239.259 45.8104H237.437L234.903 39.1257C234.871 39.0518 234.808 38.8722 234.713 38.5871C234.628 38.302 234.528 37.9852 234.412 37.6367C234.295 37.2882 234.19 36.9714 234.095 36.6862C234 36.3905 233.936 36.2005 233.905 36.116L234.269 36.1001C234.206 36.2797 234.126 36.5067 234.031 36.7813C233.947 37.0558 233.852 37.3463 233.746 37.6525C233.651 37.9588 233.556 38.2492 233.461 38.5237C233.366 38.7877 233.287 39.0095 233.223 39.189L230.705 45.8104H228.962ZM230.863 43.0541L231.497 41.4067H236.534L237.263 43.0541H230.863Z" fill="#6A3190"/>
<path d="M248.568 45.9688C247.797 45.9688 247.089 45.8315 246.445 45.557C245.801 45.2824 245.241 44.8917 244.766 44.3848C244.291 43.8673 243.921 43.2601 243.657 42.5631C243.404 41.8661 243.277 41.1005 243.277 40.2662C243.277 39.4742 243.414 38.7402 243.689 38.0644C243.974 37.3779 244.365 36.776 244.861 36.2585C245.357 35.7411 245.933 35.3398 246.588 35.0546C247.242 34.7695 247.95 34.627 248.71 34.627C249.249 34.627 249.772 34.7114 250.278 34.8804C250.796 35.0388 251.261 35.2659 251.672 35.5615C252.095 35.8467 252.438 36.1741 252.702 36.5437L251.562 37.7317C251.255 37.4255 250.944 37.172 250.627 36.9714C250.321 36.7602 250.004 36.6017 249.677 36.4961C249.36 36.3905 249.038 36.3377 248.71 36.3377C248.193 36.3377 247.707 36.4381 247.253 36.6387C246.809 36.8288 246.419 37.0981 246.081 37.4466C245.753 37.7951 245.495 38.2122 245.305 38.698C245.114 39.1732 245.019 39.6959 245.019 40.2662C245.019 40.8681 245.109 41.4173 245.289 41.9136C245.479 42.3994 245.743 42.8165 246.081 43.165C246.419 43.5135 246.82 43.7828 247.285 43.9729C247.76 44.1524 248.283 44.2422 248.853 44.2422C249.201 44.2422 249.545 44.1947 249.882 44.0996C250.22 44.0046 250.537 43.8673 250.833 43.6878C251.129 43.5082 251.398 43.297 251.641 43.0541L252.496 44.4481C252.253 44.7333 251.921 44.992 251.498 45.2243C251.086 45.4566 250.622 45.6414 250.104 45.7787C249.597 45.9055 249.085 45.9688 248.568 45.9688Z" fill="#6A3190"/>
<path d="M257.988 45.8104V34.722H264.974V36.3694H259.699V44.163H264.974V45.8104H257.988ZM258.764 40.9474V39.2999H264.103V40.9474H258.764Z" fill="#6A3190"/>
<defs>
<clipPath id="clip0_1074_9560">
<rect width="44.5045" height="54.9761" fill="white" transform="translate(5.23584)"/>
</clipPath>
</defs>
</svg>
