<svg width="182" height="37" viewBox="0 0 182 37" fill="none" xmlns="http://www.w3.org/2000/svg">
<g clip-path="url(#clip0_206_8293)">
<path fill-rule="evenodd" clip-rule="evenodd" d="M11.1387 30.7141L14.3847 22.13L13.0322 18.8193L12.6196 22.0615L10.7598 26.3587C10.9408 27.8226 11.0392 29.2398 11.1387 30.7138V30.7141Z" fill="white"/>
<path fill-rule="evenodd" clip-rule="evenodd" d="M19.1681 22.0647L18.6072 21.6484L14.7514 22.7213L12.3955 31.7413C12.7256 32.2945 13.0538 32.8489 13.382 33.4023L16.3199 23.3788L18.6072 21.6484L22.469 22.7156L19.1681 22.0647Z" fill="white"/>
<path fill-rule="evenodd" clip-rule="evenodd" d="M18.4124 24.6464C18.9504 24.7703 19.3164 24.6868 19.5064 24.3941C19.1325 24.6004 18.7505 24.578 18.4025 24.3247C18.0205 24.623 17.7451 24.5546 17.3195 24.3941L17.0649 24.2938C16.9218 24.2421 16.7555 24.1841 16.5716 24.127L14.5566 34.5613C15.9221 35.3472 17.2191 36.0328 18.6074 36.7502L21.8774 35.0555C20.7447 35.4775 19.7712 35.8367 18.6126 36.2662L18.4126 24.6464H18.4124Z" fill="white"/>
<path fill-rule="evenodd" clip-rule="evenodd" d="M16.7844 17.8277C16.5248 17.7996 13.1017 17.6974 13.6367 18.1297C14.7407 19.0065 14.2363 21.0529 14.3747 21.1553C15.1226 21.7207 17.418 17.8841 16.7844 17.8279V17.8277Z" fill="white"/>
<path fill-rule="evenodd" clip-rule="evenodd" d="M10.874 23.5566L12.2684 21.0375L12.2118 18.1396L11.0094 19.6401L10.9108 22.5062L10.9049 22.6638L10.8969 22.8363L10.874 23.5566Z" fill="white"/>
<path fill-rule="evenodd" clip-rule="evenodd" d="M20.8376 11.2108C18.8924 11.4426 16.8765 11.7605 14.9888 12.265C14.2011 12.4751 13.4025 12.7274 12.6546 13.0405C12.5909 13.0667 12.6348 13.0519 12.6734 13.0471C13.9941 12.8567 15.3696 12.7189 16.7032 12.686C17.2771 12.6719 17.9691 12.6719 18.5362 12.7573C18.5859 12.7649 18.6335 12.7724 18.6823 12.7816C14.3454 13.0507 -3.7339 15.8905 10.053 20.8874C5.85322 20.139 3.53006 19.0869 3.50012 17.2928C3.47041 14.9153 9.01482 13.6999 10.9631 13.3303C11.1809 13.289 11.3986 13.214 11.6164 13.1597C11.6999 13.1401 11.7298 13.1278 11.8065 13.0941C11.9814 13.0181 11.893 13.0247 11.7626 13.0228C11.6542 13.0219 11.4344 13.0247 11.5268 12.8671C11.5735 12.7882 11.6353 12.7002 11.685 12.6204C12.2757 11.6863 12.764 10.7017 13.2186 9.70369C13.2841 9.55832 14.948 5.44787 15.5507 4.08236C15.6174 3.93132 15.687 3.76635 15.7605 3.61909C15.8471 3.44279 16.1842 2.74494 16.3085 2.51908C16.7103 1.78653 17.2702 0.923001 17.9823 0.427633C19.1339 -0.369582 20.3104 0.0608855 21.3516 0.796268C20.4278 0.303024 19.2631 0.0151011 18.4555 0.859044C18.1214 1.20691 17.9196 1.68718 17.8121 2.14101C17.7682 2.32485 17.8767 2.33146 17.7555 2.58091C17.7017 2.6916 17.7057 2.73762 17.6937 2.85845C17.5954 3.87893 17.7453 4.98837 17.9762 5.98619C17.5058 5.66641 17.2283 5.36432 17.1439 5.07923C16.9887 6.44852 17.7178 7.26626 19.3289 7.53177C17.1071 7.94902 15.6073 9.17576 14.8297 11.2108C16.8098 10.8103 18.8575 10.8103 20.8376 11.2108Z" fill="white"/>
<path fill-rule="evenodd" clip-rule="evenodd" d="M23.6145 18.0039C23.0168 18.3322 22.3981 19.1424 22.3545 20.6917C22.0999 20.78 21.9806 20.9516 21.3291 20.1581C22.0949 21.3202 22.6009 21.7167 22.8506 21.3445C22.6973 19.6967 22.952 18.5816 23.6143 18.0039H23.6145Z" fill="#6A3190"/>
<path fill-rule="evenodd" clip-rule="evenodd" d="M26.1979 19.6406L26.0378 22.6829L25.3486 21.9131C25.6648 22.4401 25.9961 23.0582 26.3351 23.5571L26.1979 19.6406Z" fill="#6A3190"/>
<path fill-rule="evenodd" clip-rule="evenodd" d="M24.2949 25.9844L26.0711 30.7148C26.1248 29.7337 26.25 28.2821 26.45 26.3596C26.2701 27.2796 26.0921 28.1997 25.9119 29.1197L24.2949 25.9846V25.9844Z" fill="#6A3190"/>
<path fill-rule="evenodd" clip-rule="evenodd" d="M21.5078 25.499C22.2814 28.1326 23.0472 30.7715 23.827 33.4023L24.8106 31.7413C24.6814 31.8567 23.9614 32.4644 23.9305 32.4906C23.9305 32.4906 23.1199 30.5249 21.5078 25.499Z" fill="#6A3190"/>
<path fill-rule="evenodd" clip-rule="evenodd" d="M24.4994 12.9388C21.7992 8.71667 18.603 -0.284681 24.3791 4.83019C23.85 2.87397 22.9093 2.07581 21.8909 1.21582C22.8187 2.21458 23.4254 2.97805 23.6602 3.75544C23.1222 3.23576 22.2272 2.80246 21.521 2.8532C21.6014 2.54569 21.8978 2.34769 22.1126 2.27075C20.5642 2.34391 20.1931 4.15947 21.1579 6.92707C20.4557 6.16077 20.0023 5.14431 19.6064 4.16703C19.7962 6.42344 22.8447 11.1388 24.4994 12.9385V12.9388Z" fill="#6A3190"/>
<path fill-rule="evenodd" clip-rule="evenodd" d="M21.6055 13.1262C27.7028 13.657 32.2359 15.5233 32.2359 17.2442C32.2359 19.4574 28.2649 20.265 26.6984 20.8876C30.8981 20.1392 33.2503 19.0869 33.2503 17.2928C33.2503 15.4987 28.2548 13.5284 21.6055 13.126V13.1262Z" fill="#6A3190"/>
<path fill-rule="evenodd" clip-rule="evenodd" d="M16.8779 20.5547C17.4447 20.5295 17.2011 20.1018 17.3223 19.5156C17.1591 19.677 16.1825 20.5547 16.8779 20.5547ZM18.0105 19.4948C17.5043 20.0341 17.751 20.7065 18.5335 20.7254C19.2078 20.7414 20.1406 20.4608 20.4221 20.4853C20.5275 20.4957 20.6211 20.567 20.6647 20.6711C20.7084 20.7752 20.6966 20.8962 20.6339 20.989C20.9361 20.8379 21.1073 20.4872 21.0526 20.1328C20.9531 19.496 20.5235 19.6348 20.0989 19.2595C19.18 18.3085 19.2178 16.2434 19.0845 15.7275C19.0499 15.8852 19.0258 16.1028 19.0011 16.3558C18.9056 17.3057 18.7903 18.7642 18.0105 19.4946V19.4948Z" fill="white"/>
</g>
<path d="M45.5038 16.7981L42.3867 6.408H44.9546L46.5131 11.8702C46.5824 12.1176 46.6417 12.37 46.6912 12.6272C46.7506 12.8746 46.7951 13.1121 46.8248 13.3397C46.8644 13.5673 46.8941 13.78 46.9138 13.978C46.9336 14.166 46.9534 14.3243 46.9732 14.4529H46.6467C46.706 14.0868 46.7555 13.7603 46.7951 13.4733C46.8446 13.1863 46.899 12.9191 46.9584 12.6718C47.0177 12.4145 47.092 12.1473 47.181 11.8702L48.7247 7.75872H50.7434L52.2573 11.8702C52.3761 12.1968 52.475 12.5035 52.5542 12.7905C52.6334 13.0775 52.6927 13.3545 52.7323 13.6217C52.7818 13.879 52.8214 14.1363 52.8511 14.3936L52.5542 14.4381C52.574 14.26 52.5888 14.0967 52.5987 13.9483C52.6086 13.7899 52.6185 13.6415 52.6284 13.503C52.6482 13.3545 52.668 13.2012 52.6878 13.0428C52.7076 12.8845 52.7373 12.7113 52.7768 12.5233C52.8164 12.3254 52.8709 12.1028 52.9401 11.8554L54.4838 6.408H56.9923L53.8752 16.7981H51.9456L49.4817 10.8164L49.7637 10.8461L47.4927 16.7981H45.5038Z" fill="white"/>
<path d="M58.1673 16.7981V14.6756H59.9188V8.53055H58.1673V6.408H64.2084V8.53055H62.4421V14.6756H64.2084V16.7981H58.1673Z" fill="white"/>
<path d="M66.1928 16.7981V15.1209L71.7737 7.69934L72.6495 8.72351H66.5787V6.408H74.4158V8.07042L68.8645 15.5068L67.9739 14.5865H74.5791V16.7981H66.1928Z" fill="white"/>
<path d="M75.4194 16.7981L79.531 6.408H81.6684L85.7502 16.7981H83.1972L81.2379 11.5288C81.1588 11.321 81.0796 11.0984 81.0004 10.8609C80.9213 10.6234 80.8421 10.381 80.7629 10.1336C80.6838 9.87632 80.6046 9.62894 80.5255 9.39145C80.4562 9.14407 80.3968 8.91647 80.3473 8.70867L80.7926 8.69383C80.7333 8.94121 80.664 9.18365 80.5848 9.42114C80.5156 9.65862 80.4413 9.89611 80.3622 10.1336C80.2929 10.3612 80.2137 10.5937 80.1247 10.8312C80.0356 11.0588 79.9515 11.2963 79.8724 11.5437L77.9131 16.7981H75.4194ZM77.3787 14.8092L78.1654 12.9093H82.9449L83.7167 14.8092H77.3787Z" fill="white"/>
<path d="M87.0465 16.7981V6.408H91.7221C92.3851 6.408 92.9838 6.55148 93.5181 6.83845C94.0624 7.12541 94.4879 7.52123 94.7946 8.02589C95.1014 8.52066 95.2547 9.08469 95.2547 9.718C95.2547 10.3711 95.1014 10.9599 94.7946 11.4843C94.4879 11.9989 94.0673 12.4046 93.5329 12.7014C92.9986 12.9983 92.395 13.1467 91.7221 13.1467H89.4511V16.7981H87.0465ZM92.8056 16.7981L90.1636 12.1077L92.7463 11.7367L95.6852 16.7981H92.8056ZM89.4511 11.2171H91.4995C91.7567 11.2171 91.9794 11.1627 92.1674 11.0539C92.3653 10.9351 92.5137 10.7719 92.6127 10.5641C92.7215 10.3562 92.776 10.1188 92.776 9.85158C92.776 9.58441 92.7166 9.35187 92.5978 9.15396C92.4791 8.94616 92.3059 8.78783 92.0783 8.67898C91.8606 8.57013 91.5935 8.51571 91.2768 8.51571H89.4511V11.2171Z" fill="white"/>
<path d="M97.4686 16.7981V6.408H101.818C102.58 6.408 103.277 6.53664 103.91 6.79392C104.544 7.0413 105.088 7.39753 105.543 7.86262C106.008 8.3277 106.364 8.87689 106.612 9.51019C106.859 10.1435 106.983 10.8411 106.983 11.6031C106.983 12.365 106.859 13.0676 106.612 13.7108C106.364 14.3441 106.008 14.8933 105.543 15.3584C105.088 15.8135 104.544 16.1698 103.91 16.4271C103.277 16.6744 102.58 16.7981 101.818 16.7981H97.4686ZM99.9919 15.0763L99.6505 14.5717H101.743C102.159 14.5717 102.53 14.5024 102.857 14.3639C103.183 14.2154 103.46 14.0126 103.688 13.7553C103.925 13.498 104.108 13.1863 104.237 12.8202C104.366 12.4541 104.43 12.0484 104.43 11.6031C104.43 11.1578 104.366 10.7521 104.237 10.3859C104.108 10.0198 103.925 9.7081 103.688 9.45082C103.46 9.19354 103.183 8.99564 102.857 8.8571C102.53 8.70867 102.159 8.63445 101.743 8.63445H99.606L99.9919 8.15948V15.0763Z" fill="white"/>
<path d="M118.513 16.9466C117.681 16.9466 116.929 16.813 116.256 16.5458C115.584 16.2786 115.005 15.9026 114.52 15.4177C114.035 14.9329 113.664 14.3639 113.407 13.7108C113.149 13.0478 113.021 12.3304 113.021 11.5585C113.021 10.7867 113.154 10.0792 113.421 9.43598C113.699 8.78289 114.089 8.2139 114.594 7.72903C115.099 7.24416 115.692 6.86813 116.375 6.60096C117.068 6.33378 117.82 6.2002 118.631 6.2002C119.205 6.2002 119.745 6.27441 120.249 6.42284C120.764 6.57127 121.229 6.77413 121.645 7.03141C122.06 7.28869 122.411 7.58555 122.698 7.92199L121.17 9.53988C120.922 9.30239 120.665 9.10448 120.398 8.94616C120.14 8.78783 119.863 8.66414 119.566 8.57508C119.27 8.47613 118.953 8.42665 118.617 8.42665C118.181 8.42665 117.78 8.50582 117.414 8.66414C117.058 8.82247 116.741 9.04511 116.464 9.33208C116.197 9.60915 115.989 9.94064 115.841 10.3266C115.692 10.7026 115.618 11.1132 115.618 11.5585C115.618 12.0038 115.697 12.4194 115.856 12.8054C116.014 13.1913 116.232 13.5277 116.509 13.8147C116.786 14.0917 117.112 14.3144 117.488 14.4826C117.874 14.6409 118.285 14.7201 118.72 14.7201C119.027 14.7201 119.314 14.6706 119.581 14.5717C119.858 14.4727 120.096 14.3391 120.294 14.1709C120.492 14.0027 120.65 13.8048 120.769 13.5772C120.888 13.3397 120.947 13.0874 120.947 12.8202V12.4343L121.273 12.9389H118.409V10.9648H123.292C123.312 11.0737 123.327 11.2221 123.337 11.4101C123.347 11.5981 123.351 11.7812 123.351 11.9593C123.361 12.1374 123.366 12.271 123.366 12.3601C123.366 13.0329 123.243 13.6514 122.995 14.2154C122.758 14.7696 122.421 15.2495 121.986 15.6552C121.551 16.0609 121.036 16.3776 120.442 16.6052C119.849 16.8328 119.205 16.9466 118.513 16.9466Z" fill="white"/>
<path d="M123.833 16.7981L127.945 6.408H130.082L134.164 16.7981H131.611L129.652 11.5288C129.573 11.321 129.493 11.0984 129.414 10.8609C129.335 10.6234 129.256 10.381 129.177 10.1336C129.098 9.87632 129.018 9.62894 128.939 9.39145C128.87 9.14407 128.811 8.91647 128.761 8.70867L129.206 8.69383C129.147 8.94121 129.078 9.18365 128.999 9.42114C128.929 9.65862 128.855 9.89611 128.776 10.1336C128.707 10.3612 128.628 10.5937 128.539 10.8312C128.449 11.0588 128.365 11.2963 128.286 11.5437L126.327 16.7981H123.833ZM125.793 14.8092L126.579 12.9093H131.359L132.131 14.8092H125.793Z" fill="white"/>
<path d="M135.46 16.7981V6.408H137.984V14.5717H142.615V16.7981H135.46Z" fill="white"/>
<path d="M144.505 16.7981V6.408H147.029V14.5717H151.66V16.7981H144.505Z" fill="white"/>
<path d="M153.55 16.7981V6.408H160.794V8.56024H155.999V14.6459H160.942V16.7981H153.55ZM154.738 12.5382V10.4898H160.126V12.5382H154.738Z" fill="white"/>
<path d="M163.117 16.7981V6.408H167.793C168.456 6.408 169.054 6.55148 169.589 6.83845C170.133 7.12541 170.558 7.52123 170.865 8.02589C171.172 8.52066 171.325 9.08469 171.325 9.718C171.325 10.3711 171.172 10.9599 170.865 11.4843C170.558 11.9989 170.138 12.4046 169.604 12.7014C169.069 12.9983 168.466 13.1467 167.793 13.1467H165.522V16.7981H163.117ZM168.876 16.7981L166.234 12.1077L168.817 11.7367L171.756 16.7981H168.876ZM165.522 11.2171H167.57C167.827 11.2171 168.05 11.1627 168.238 11.0539C168.436 10.9351 168.584 10.7719 168.683 10.5641C168.792 10.3562 168.847 10.1188 168.847 9.85158C168.847 9.58441 168.787 9.35187 168.668 9.15396C168.55 8.94616 168.377 8.78783 168.149 8.67898C167.931 8.57013 167.664 8.51571 167.347 8.51571H165.522V11.2171Z" fill="white"/>
<path d="M175.486 16.7981V11.6179L175.59 12.3452L171.39 6.408H174.255L177.461 11.0093L176.154 10.9648L179.049 6.408H181.824L177.802 12.5085L178.025 11.4992V16.7981H175.486Z" fill="white"/>
<path d="M47.084 30.6223V23.21H48.1111L52.6432 29.2775L52.4738 29.3728C52.4455 29.1963 52.4208 29.0057 52.3997 28.801C52.3785 28.5892 52.3573 28.3669 52.3361 28.1339C52.322 27.8939 52.3079 27.6433 52.2938 27.3821C52.2867 27.1138 52.2797 26.835 52.2726 26.5456C52.2655 26.2561 52.262 25.9561 52.262 25.6455V23.21H53.4056V30.6223H52.3573L47.8993 24.7772L48.0158 24.6289C48.0511 25.0596 48.0793 25.4266 48.1005 25.7302C48.1288 26.0267 48.1499 26.2808 48.1641 26.4926C48.1852 26.6973 48.1994 26.8668 48.2064 27.0009C48.2135 27.1279 48.217 27.2338 48.217 27.3185C48.2241 27.4033 48.2276 27.4774 48.2276 27.5409V30.6223H47.084Z" fill="#6A3190"/>
<path d="M57.5985 30.6223V23.21H58.7421V30.6223H57.5985ZM58.1068 27.4668V26.3655H61.9294V27.4668H58.1068ZM58.1068 24.3113V23.21H62.4059V24.3113H58.1068Z" fill="#6A3190"/>
<path d="M67.6497 30.6223V24.3113H65.5743V23.21H70.9323V24.3113H68.7933V30.6223H67.6497Z" fill="#6A3190"/>
<path d="M79.5459 30.6223V23.21H80.6683L83.3685 27.6045L82.8285 27.5939L85.5604 23.21H86.6193V30.6223H85.4757V27.5833C85.4757 26.9479 85.4898 26.3761 85.5181 25.8679C85.5534 25.3596 85.6098 24.8548 85.6875 24.3536L85.8357 24.7454L83.4109 28.4939H82.712L80.3612 24.7878L80.4777 24.3536C80.5554 24.8266 80.6083 25.3137 80.6365 25.8149C80.6718 26.3091 80.6895 26.8985 80.6895 27.5833V30.6223H79.5459Z" fill="#6A3190"/>
<path d="M90.0423 30.6223L92.9119 23.21H94.0767L96.9251 30.6223H95.7074L94.0132 26.1538C93.992 26.1043 93.9496 25.9843 93.8861 25.7937C93.8296 25.6031 93.7626 25.3914 93.6849 25.1584C93.6073 24.9254 93.5367 24.7137 93.4731 24.5231C93.4096 24.3254 93.3672 24.1983 93.3461 24.1418L93.5896 24.1313C93.5473 24.2513 93.4943 24.403 93.4308 24.5866C93.3743 24.7701 93.3108 24.9643 93.2402 25.169C93.1766 25.3737 93.1131 25.5678 93.0496 25.7514C92.986 25.9279 92.9331 26.0761 92.8907 26.1961L91.2071 30.6223H90.0423ZM91.313 28.7798L91.7365 27.6786H95.1038L95.5909 28.7798H91.313Z" fill="#6A3190"/>
<path d="M100.347 30.6223V23.21H103.503C103.927 23.21 104.315 23.3159 104.668 23.5277C105.028 23.7324 105.314 24.0148 105.525 24.3748C105.737 24.7278 105.843 25.1266 105.843 25.5714C105.843 25.9737 105.737 26.3479 105.525 26.6938C105.314 27.0397 105.031 27.3185 104.678 27.5303C104.325 27.735 103.934 27.8374 103.503 27.8374H101.491V30.6223H100.347ZM104.752 30.6223L102.868 27.2762L104.043 27.0115L106.14 30.6329L104.752 30.6223ZM101.491 26.7362H103.609C103.814 26.7362 103.997 26.6867 104.159 26.5879C104.322 26.482 104.449 26.3408 104.541 26.1643C104.632 25.9808 104.678 25.7796 104.678 25.5608C104.678 25.3137 104.618 25.0984 104.498 24.9148C104.385 24.7242 104.223 24.576 104.011 24.4701C103.807 24.3642 103.574 24.3113 103.312 24.3113H101.491V26.7362Z" fill="#6A3190"/>
<path d="M110.781 28.3774L110.717 27.0962L114.604 23.21H116.107L110.781 28.3774ZM109.828 30.6223V23.21H110.972V30.6223H109.828ZM114.741 30.6223L111.903 26.8315L112.75 26.1008L116.171 30.6223H114.741Z" fill="#6A3190"/>
<path d="M119.701 30.6223V23.21H124.371V24.3113H120.845V29.5211H124.371V30.6223H119.701ZM120.22 27.3715V26.2702H123.789V27.3715H120.22Z" fill="#6A3190"/>
<path d="M129.732 30.6223V24.3113H127.656V23.21H133.014V24.3113H130.875V30.6223H129.732Z" fill="#6A3190"/>
<path d="M136.542 30.6223V23.21H139.56C139.963 23.21 140.326 23.3124 140.651 23.5171C140.983 23.7148 141.247 23.9865 141.445 24.3325C141.643 24.6784 141.742 25.0631 141.742 25.4867C141.742 25.9102 141.643 26.2949 141.445 26.6409C141.247 26.9868 140.983 27.2656 140.651 27.4774C140.326 27.6821 139.963 27.7845 139.56 27.7845H137.686V30.6223H136.542ZM137.686 26.6832H139.539C139.73 26.6832 139.903 26.6303 140.058 26.5244C140.213 26.4114 140.337 26.2667 140.429 26.0902C140.527 25.9067 140.577 25.7055 140.577 25.4867C140.577 25.2678 140.527 25.0702 140.429 24.8937C140.337 24.7172 140.213 24.576 140.058 24.4701C139.903 24.3642 139.73 24.3113 139.539 24.3113H137.686V26.6832Z" fill="#6A3190"/>
<path d="M145.371 30.6223V23.21H146.515V29.5211H149.988V30.6223H145.371Z" fill="#6A3190"/>
<path d="M153.055 30.6223L155.925 23.21H157.089L159.938 30.6223H158.72L157.026 26.1538C157.005 26.1043 156.962 25.9843 156.899 25.7937C156.842 25.6031 156.775 25.3914 156.698 25.1584C156.62 24.9254 156.549 24.7137 156.486 24.5231C156.422 24.3254 156.38 24.1983 156.359 24.1418L156.602 24.1313C156.56 24.2513 156.507 24.403 156.444 24.5866C156.387 24.7701 156.324 24.9643 156.253 25.169C156.189 25.3737 156.126 25.5678 156.062 25.7514C155.999 25.9279 155.946 26.0761 155.904 26.1961L154.22 30.6223H153.055ZM154.326 28.7798L154.749 27.6786H158.117L158.604 28.7798H154.326Z" fill="#6A3190"/>
<path d="M166.161 30.7282C165.645 30.7282 165.172 30.6364 164.742 30.4529C164.311 30.2693 163.937 30.0082 163.619 29.6693C163.302 29.3234 163.055 28.9175 162.878 28.4516C162.709 27.9857 162.624 27.4739 162.624 26.9162C162.624 26.3867 162.716 25.8961 162.899 25.4443C163.09 24.9854 163.351 24.5831 163.683 24.2372C164.015 23.8912 164.399 23.623 164.837 23.4324C165.275 23.2418 165.748 23.1465 166.256 23.1465C166.616 23.1465 166.965 23.203 167.304 23.3159C167.65 23.4218 167.961 23.5736 168.236 23.7712C168.519 23.9618 168.748 24.1807 168.924 24.4278L168.162 25.2219C167.957 25.0172 167.749 24.8478 167.537 24.7137C167.333 24.5725 167.121 24.4666 166.902 24.396C166.69 24.3254 166.475 24.2901 166.256 24.2901C165.91 24.2901 165.585 24.3572 165.282 24.4913C164.985 24.6184 164.724 24.7984 164.498 25.0313C164.279 25.2643 164.106 25.5431 163.979 25.8679C163.852 26.1855 163.789 26.535 163.789 26.9162C163.789 27.3185 163.849 27.6856 163.969 28.0174C164.096 28.3422 164.272 28.621 164.498 28.854C164.724 29.0869 164.992 29.2669 165.303 29.394C165.621 29.514 165.97 29.574 166.351 29.574C166.584 29.574 166.814 29.5422 167.04 29.4787C167.265 29.4152 167.477 29.3234 167.675 29.2034C167.873 29.0834 168.053 28.9422 168.215 28.7798L168.787 29.7117C168.624 29.9023 168.402 30.0752 168.12 30.2305C167.844 30.3858 167.534 30.5094 167.188 30.6011C166.849 30.6859 166.507 30.7282 166.161 30.7282Z" fill="#6A3190"/>
<path d="M172.458 30.6223V23.21H177.128V24.3113H173.602V29.5211H177.128V30.6223H172.458ZM172.977 27.3715V26.2702H176.545V27.3715H172.977Z" fill="#6A3190"/>
<defs>
<clipPath id="clip0_206_8293">
<rect width="29.75" height="36.75" fill="white" transform="translate(3.5)"/>
</clipPath>
</defs>
</svg>
