<svg width="32" height="32" viewBox="0 0 32 32" fill="none" xmlns="http://www.w3.org/2000/svg">
<g id="metamask 2" clip-path="url(#clip0_443_9804)">
<circle id="Ellipse 785" cx="16" cy="16" r="16" fill="white"/>
<g id="Group">
<path id="Vector" fill-rule="evenodd" clip-rule="evenodd" d="M11.8633 23.6754L14.5167 24.3794V23.4588L14.7333 23.2422H16.2494V24.3252V25.0833H14.625L12.6214 24.2169L11.8633 23.6754Z" fill="#CDBDB2"/>
<path id="Vector_2" fill-rule="evenodd" clip-rule="evenodd" d="M20.5273 23.6754L17.9282 24.3794V23.4588L17.7116 23.2422H16.1954V24.3252V25.0833H17.8199L19.8234 24.2169L20.5273 23.6754Z" fill="#CDBDB2"/>
<path id="Vector_3" fill-rule="evenodd" clip-rule="evenodd" d="M14.7342 21.677L14.5176 23.4639L14.7883 23.2473H17.604L17.9289 23.4639L17.7123 21.677L17.2792 21.4062L15.1132 21.4604L14.7342 21.677Z" fill="#393939"/>
<path id="Vector_4" fill-rule="evenodd" clip-rule="evenodd" d="M13.2734 9.60156L14.573 12.6339L15.1687 21.4604H17.2805L17.9303 12.6339L19.1216 9.60156H13.2734Z" fill="#F89C35"/>
<path id="Vector_5" fill-rule="evenodd" clip-rule="evenodd" d="M7.5865 16.2573L6.07031 20.6434L9.86078 20.4268H12.2975V18.5316L12.1892 14.6328L11.6477 15.066L7.5865 16.2573Z" fill="#F89D35"/>
<path id="Vector_6" fill-rule="evenodd" clip-rule="evenodd" d="M10.457 16.75L14.8973 16.8583L14.41 19.1326L12.2981 18.5911L10.457 16.75Z" fill="#D87C30"/>
<path id="Vector_7" fill-rule="evenodd" clip-rule="evenodd" d="M10.457 16.8047L12.2981 18.5375V20.2703L10.457 16.8047Z" fill="#EA8D3A"/>
<path id="Vector_8" fill-rule="evenodd" clip-rule="evenodd" d="M12.2969 18.5859L14.4629 19.1274L15.1669 21.4559L14.6795 21.7266L12.2969 20.3187V18.5859Z" fill="#F89D35"/>
<path id="Vector_9" fill-rule="evenodd" clip-rule="evenodd" d="M12.2965 20.3203L11.8633 23.6776L14.7333 21.6741L12.2965 20.3203Z" fill="#EB8F35"/>
<path id="Vector_10" fill-rule="evenodd" clip-rule="evenodd" d="M14.897 16.8516L15.1678 21.4543L14.3555 19.0988L14.897 16.8516Z" fill="#EA8E3A"/>
<path id="Vector_11" fill-rule="evenodd" clip-rule="evenodd" d="M9.80664 20.3745L12.2975 20.3203L11.8643 23.6776L9.80664 20.3745Z" fill="#D87C30"/>
<path id="Vector_12" fill-rule="evenodd" clip-rule="evenodd" d="M7.2616 25.1402L11.8643 23.6781L9.80658 20.375L6.07031 20.6457L7.2616 25.1402Z" fill="#EB8F35"/>
<path id="Vector_13" fill-rule="evenodd" clip-rule="evenodd" d="M14.5724 12.6328L12.244 14.5822L10.457 16.7482L14.8973 16.9107L14.5724 12.6328Z" fill="#E8821E"/>
<path id="Vector_14" fill-rule="evenodd" clip-rule="evenodd" d="M11.8633 23.6754L14.7333 21.6719L14.5167 23.4047V24.3794L12.5673 24.0003L11.8633 23.6754Z" fill="#DFCEC3"/>
<path id="Vector_15" fill-rule="evenodd" clip-rule="evenodd" d="M20.5273 23.6754L17.7116 21.6719L17.9282 23.4047V24.3794L19.8775 24.0003L20.5273 23.6754Z" fill="#DFCEC3"/>
<path id="Vector_16" fill-rule="evenodd" clip-rule="evenodd" d="M13.7051 17.8281L14.3008 19.0736L12.1889 18.5321L13.7051 17.8281Z" fill="#393939"/>
<path id="Vector_17" fill-rule="evenodd" clip-rule="evenodd" d="M7.20703 7.05469L14.5714 12.632L13.326 9.59967L7.20703 7.05469Z" fill="#E88F35"/>
<path id="Vector_18" fill-rule="evenodd" clip-rule="evenodd" d="M7.20711 7.05469L6.23242 10.0329L6.77392 13.2819L6.39487 13.4985L6.93637 13.9858L6.50317 14.3649L7.09881 14.9064L6.71977 15.2313L7.58616 16.3143L11.6474 15.0688C13.6329 13.4804 14.6075 12.6682 14.5714 12.6321C14.5353 12.596 12.0806 10.7369 7.20711 7.05469Z" fill="#8E5A30"/>
<g id="Group_2">
<path id="Vector_19" fill-rule="evenodd" clip-rule="evenodd" d="M24.8061 16.2573L26.3223 20.6434L22.5318 20.4268H20.0951V18.5316L20.2034 14.6328L20.7449 15.066L24.8061 16.2573Z" fill="#F89D35"/>
<path id="Vector_20" fill-rule="evenodd" clip-rule="evenodd" d="M21.9375 16.75L17.4972 16.8583L17.9845 19.1326L20.0964 18.5911L21.9375 16.75Z" fill="#D87C30"/>
<path id="Vector_21" fill-rule="evenodd" clip-rule="evenodd" d="M21.9375 16.8047L20.0964 18.5375V20.2703L21.9375 16.8047Z" fill="#EA8D3A"/>
<path id="Vector_22" fill-rule="evenodd" clip-rule="evenodd" d="M20.0938 18.5859L17.9278 19.1274L17.2238 21.4559L17.7112 21.7266L20.0938 20.3187V18.5859Z" fill="#F89D35"/>
<path id="Vector_23" fill-rule="evenodd" clip-rule="evenodd" d="M20.0941 20.3203L20.5273 23.6776L17.7116 21.7282L20.0941 20.3203Z" fill="#EB8F35"/>
<path id="Vector_24" fill-rule="evenodd" clip-rule="evenodd" d="M17.4956 16.8516L17.2248 21.4543L18.0371 19.0988L17.4956 16.8516Z" fill="#EA8E3A"/>
<path id="Vector_25" fill-rule="evenodd" clip-rule="evenodd" d="M22.5859 20.3745L20.0951 20.3203L20.5283 23.6776L22.5859 20.3745Z" fill="#D87C30"/>
<path id="Vector_26" fill-rule="evenodd" clip-rule="evenodd" d="M25.131 25.1402L20.5283 23.6781L22.586 20.375L26.3223 20.6457L25.131 25.1402Z" fill="#EB8F35"/>
<path id="Vector_27" fill-rule="evenodd" clip-rule="evenodd" d="M17.8221 12.6328L20.1505 14.5822L21.9375 16.7482L17.4972 16.9107L17.8221 12.6328Z" fill="#E8821E"/>
<path id="Vector_28" fill-rule="evenodd" clip-rule="evenodd" d="M18.6875 17.8281L18.0918 19.0736L20.2037 18.5321L18.6875 17.8281Z" fill="#393939"/>
<path id="Vector_29" fill-rule="evenodd" clip-rule="evenodd" d="M25.1855 7.05469L17.8212 12.632L19.0666 9.59967L25.1855 7.05469Z" fill="#E88F35"/>
<path id="Vector_30" fill-rule="evenodd" clip-rule="evenodd" d="M25.1855 7.05469L26.1602 10.0329L25.6187 13.2819L25.9977 13.4985L25.4562 13.9858L25.8894 14.3649L25.2938 14.9064L25.6728 15.2313L24.8064 16.3143L20.7452 15.0688C18.7597 13.4804 17.785 12.6682 17.8211 12.6321C17.8572 12.596 20.312 10.7369 25.1855 7.05469Z" fill="#8E5A30"/>
</g>
</g>
</g>
<defs>
<clipPath id="clip0_443_9804">
<rect width="32" height="32" fill="white"/>
</clipPath>
</defs>
</svg>
