<svg width="32" height="32" viewBox="0 0 32 32" fill="none" xmlns="http://www.w3.org/2000/svg">
<g id="walletconnect" clip-path="url(#clip0_443_9843)">
<g id="Group">
<path id="Vector" fill-rule="evenodd" clip-rule="evenodd" d="M16 0C24.8375 0 32 7.1625 32 16C32 24.8375 24.8375 32 16 32C7.1625 32 0 24.8375 0 16C0 7.1625 7.1625 0 16 0Z" fill="white"/>
<path id="Vector_2" d="M10.168 12.3578C13.3867 9.21406 18.6117 9.21406 21.8305 12.3578L22.218 12.7391C22.3805 12.8953 22.3805 13.1516 22.218 13.3078L20.893 14.6016C20.8117 14.6828 20.6805 14.6828 20.5992 14.6016L20.068 14.0828C17.818 11.8891 14.1805 11.8891 11.9305 14.0828L11.3617 14.6391C11.2805 14.7203 11.1492 14.7203 11.068 14.6391L9.74297 13.3453C9.58047 13.1891 9.58047 12.9328 9.74297 12.7766L10.168 12.3578ZM24.5742 15.0328L25.7555 16.1828C25.918 16.339 25.918 16.5953 25.7555 16.7515L20.4367 21.9453C20.2742 22.1015 20.0117 22.1015 19.8555 21.9453L16.0805 18.2578C16.043 18.2203 15.9742 18.2203 15.9367 18.2578L12.1617 21.9453C11.9992 22.1015 11.7367 22.1015 11.5805 21.9453L6.24297 16.7515C6.08047 16.5953 6.08047 16.339 6.24297 16.1828L7.42422 15.0328C7.58672 14.8766 7.84922 14.8766 8.00547 15.0328L11.7805 18.7203C11.818 18.7578 11.8867 18.7578 11.9242 18.7203L15.6992 15.0328C15.8617 14.8766 16.1242 14.8766 16.2805 15.0328L20.0555 18.7203C20.093 18.7578 20.1617 18.7578 20.1992 18.7203L23.9742 15.0328C24.1492 14.8766 24.4117 14.8766 24.5742 15.0328Z" fill="#0270FF"/>
</g>
</g>
<defs>
<clipPath id="clip0_443_9843">
<rect width="32" height="32" fill="white"/>
</clipPath>
</defs>
</svg>
