<svg width="34" height="34" viewBox="0 0 34 34" fill="none" xmlns="http://www.w3.org/2000/svg">
<rect y="3.05176e-05" width="34" height="34" rx="5" fill="#862FC0"/>
<path d="M24.0442 11.9916C21.7524 10.2766 19.5566 10.3248 19.5566 10.3248L19.3322 10.5812C22.0568 11.3986 23.323 12.6006 23.323 12.6006C19.4248 10.4544 14.4596 10.4698 10.405 12.6006C10.405 12.6006 11.7192 11.3344 14.6042 10.517L14.444 10.3246C14.444 10.3246 12.2642 10.2766 9.95644 11.9914C9.95644 11.9914 7.64844 16.1424 7.64844 21.2552C7.64844 21.2552 8.99484 23.5632 12.5368 23.6754C12.5368 23.6754 13.1298 22.9702 13.6106 22.3612C11.5752 21.7522 10.8058 20.486 10.8058 20.486C12.0846 21.2862 13.3776 21.787 14.989 22.1048C17.6106 22.6444 20.8716 22.0896 23.3072 20.486C23.3072 20.486 22.5058 21.7842 20.4062 22.3772C20.887 22.9702 21.464 23.6594 21.464 23.6594C25.006 23.5472 26.3522 21.2392 26.3522 21.2554C26.352 16.1426 24.0442 11.9916 24.0442 11.9916ZM14.0112 19.7648C13.1136 19.7648 12.3764 18.9794 12.3764 18.0018C12.442 15.6604 15.5968 15.6676 15.646 18.0018C15.646 18.9794 14.9246 19.7648 14.0112 19.7648ZM19.861 19.7648C18.9634 19.7648 18.2262 18.9794 18.2262 18.0018C18.2982 15.665 21.4136 15.664 21.4958 18.0018C21.4958 18.9794 20.7746 19.7648 19.861 19.7648Z" fill="white"/>
</svg>
