<svg width="37" height="38" viewBox="0 0 37 38" fill="none" xmlns="http://www.w3.org/2000/svg">
<rect width="37" height="38" rx="5" fill="#862FC0"/>
<path d="M19 29.75C13.07 29.75 8.25 24.93 8.25 19C8.25 13.07 13.07 8.25 19 8.25C24.93 8.25 29.75 13.07 29.75 19C29.75 24.93 24.93 29.75 19 29.75ZM19 9.75C13.9 9.75 9.75 13.9 9.75 19C9.75 24.1 13.9 28.25 19 28.25C24.1 28.25 28.25 24.1 28.25 19C28.25 13.9 24.1 9.75 19 9.75Z" fill="white"/>
<path d="M16.0002 28.75H15.0002C14.5902 28.75 14.2502 28.41 14.2502 28C14.2502 27.59 14.5702 27.26 14.9802 27.25C13.4102 21.89 13.4102 16.11 14.9802 10.75C14.5702 10.74 14.2502 10.41 14.2502 10C14.2502 9.59 14.5902 9.25 15.0002 9.25H16.0002C16.2402 9.25 16.4702 9.37 16.6102 9.56C16.7502 9.76 16.7902 10.01 16.7102 10.24C14.8302 15.89 14.8302 22.11 16.7102 27.77C16.7902 28 16.7502 28.25 16.6102 28.45C16.4702 28.63 16.2402 28.75 16.0002 28.75Z" fill="white"/>
<path d="M22.0004 28.7502C21.9204 28.7502 21.8404 28.7402 21.7604 28.7102C21.3704 28.5802 21.1504 28.1502 21.2904 27.7602C23.1704 22.1102 23.1704 15.8902 21.2904 10.2302C21.1604 9.84018 21.3704 9.41018 21.7604 9.28018C22.1604 9.15018 22.5804 9.36018 22.7104 9.75018C24.7004 15.7102 24.7004 22.2702 22.7104 28.2202C22.6104 28.5502 22.3104 28.7502 22.0004 28.7502Z" fill="white"/>
<path d="M19 24.2C16.21 24.2 13.43 23.81 10.75 23.02C10.74 23.42 10.41 23.75 10 23.75C9.59 23.75 9.25 23.41 9.25 23V22C9.25 21.76 9.37 21.53 9.56 21.39C9.76 21.25 10.01 21.21 10.24 21.29C15.89 23.17 22.12 23.17 27.77 21.29C28 21.21 28.25 21.25 28.45 21.39C28.65 21.53 28.76 21.76 28.76 22V23C28.76 23.41 28.42 23.75 28.01 23.75C27.6 23.75 27.27 23.43 27.26 23.02C24.57 23.81 21.79 24.2 19 24.2Z" fill="white"/>
<path d="M27.9998 16.75C27.9198 16.75 27.8398 16.74 27.7598 16.71C22.1098 14.83 15.8798 14.83 10.2298 16.71C9.82978 16.84 9.40978 16.63 9.27978 16.24C9.15978 15.84 9.36978 15.42 9.75978 15.29C15.7198 13.3 22.2798 13.3 28.2298 15.29C28.6198 15.42 28.8398 15.85 28.6998 16.24C28.6098 16.55 28.3098 16.75 27.9998 16.75Z" fill="white"/>
</svg>
