<svg width="34" height="34" viewBox="0 0 34 34" fill="none" xmlns="http://www.w3.org/2000/svg">
<rect y="6.10352e-05" width="34" height="34" rx="5" fill="#862FC0"/>
<g clip-path="url(#clip0_206_18393)">
<path d="M17.0013 8.66656C19.2655 8.66656 19.548 8.6749 20.4363 8.71656C21.3238 8.75823 21.928 8.8974 22.4596 9.10407C23.0096 9.31573 23.473 9.6024 23.9363 10.0649C24.36 10.4815 24.6879 10.9854 24.8971 11.5416C25.103 12.0724 25.243 12.6774 25.2846 13.5649C25.3238 14.4532 25.3346 14.7357 25.3346 16.9999C25.3346 19.2641 25.3263 19.5466 25.2846 20.4349C25.243 21.3224 25.103 21.9266 24.8971 22.4582C24.6885 23.0147 24.3606 23.5187 23.9363 23.9349C23.5196 24.3585 23.0157 24.6864 22.4596 24.8957C21.9288 25.1016 21.3238 25.2416 20.4363 25.2832C19.548 25.3224 19.2655 25.3332 17.0013 25.3332C14.7371 25.3332 14.4546 25.3249 13.5663 25.2832C12.6788 25.2416 12.0746 25.1016 11.543 24.8957C10.9866 24.687 10.4826 24.359 10.0663 23.9349C9.64247 23.5184 9.31458 23.0145 9.10547 22.4582C8.8988 21.9274 8.75964 21.3224 8.71797 20.4349C8.6788 19.5466 8.66797 19.2641 8.66797 16.9999C8.66797 14.7357 8.6763 14.4532 8.71797 13.5649C8.75964 12.6766 8.8988 12.0732 9.10547 11.5416C9.314 10.985 9.64197 10.481 10.0663 10.0649C10.4827 9.64092 10.9867 9.31301 11.543 9.10407C12.0746 8.8974 12.678 8.75823 13.5663 8.71656C14.4546 8.6774 14.7371 8.66656 17.0013 8.66656ZM17.0013 12.8332C15.8962 12.8332 14.8364 13.2722 14.055 14.0536C13.2736 14.835 12.8346 15.8948 12.8346 16.9999C12.8346 18.105 13.2736 19.1648 14.055 19.9462C14.8364 20.7276 15.8962 21.1666 17.0013 21.1666C18.1064 21.1666 19.1662 20.7276 19.9476 19.9462C20.729 19.1648 21.168 18.105 21.168 16.9999C21.168 15.8948 20.729 14.835 19.9476 14.0536C19.1662 13.2722 18.1064 12.8332 17.0013 12.8332ZM22.418 12.6249C22.418 12.3486 22.3082 12.0837 22.1129 11.8883C21.9175 11.693 21.6526 11.5832 21.3763 11.5832C21.1 11.5832 20.8351 11.693 20.6397 11.8883C20.4444 12.0837 20.3346 12.3486 20.3346 12.6249C20.3346 12.9012 20.4444 13.1661 20.6397 13.3615C20.8351 13.5568 21.1 13.6666 21.3763 13.6666C21.6526 13.6666 21.9175 13.5568 22.1129 13.3615C22.3082 13.1661 22.418 12.9012 22.418 12.6249ZM17.0013 14.4999C17.6643 14.4999 18.3002 14.7633 18.7691 15.2321C19.2379 15.701 19.5013 16.3369 19.5013 16.9999C19.5013 17.6629 19.2379 18.2988 18.7691 18.7677C18.3002 19.2365 17.6643 19.4999 17.0013 19.4999C16.3383 19.4999 15.7024 19.2365 15.2335 18.7677C14.7647 18.2988 14.5013 17.6629 14.5013 16.9999C14.5013 16.3369 14.7647 15.701 15.2335 15.2321C15.7024 14.7633 16.3383 14.4999 17.0013 14.4999Z" fill="white"/>
</g>
<defs>
<clipPath id="clip0_206_18393">
<rect width="20" height="20" fill="white" transform="translate(7 7.00006)"/>
</clipPath>
</defs>
</svg>
