<svg width="38" height="38" viewBox="0 0 38 38" fill="none" xmlns="http://www.w3.org/2000/svg">
<rect y="0.00012207" width="38" height="38" rx="5" fill="#862FC0"/>
<path d="M26.6441 13.1807C27.5012 12.6445 28.1425 11.8002 28.4483 10.8055C27.6429 11.3055 26.7618 11.6578 25.8429 11.847C24.569 10.4368 22.5505 10.0936 20.9155 11.0092C19.2804 11.9248 18.4335 13.8725 18.848 15.764C15.549 15.5906 12.4754 13.96 10.3921 11.2777C9.30485 13.2401 9.86046 15.7487 11.6618 17.0106C11.0104 16.9887 10.3735 16.8041 9.80409 16.4723C9.80409 16.4903 9.80409 16.5083 9.80409 16.5263C9.80447 18.5705 11.1813 20.3313 13.096 20.7364C12.4918 20.9085 11.858 20.9338 11.243 20.8105C11.7815 22.5586 13.3212 23.7563 15.0761 23.792C13.6227 24.9857 11.8277 25.6331 9.98002 25.6299C9.65252 25.6304 9.32528 25.6107 9 25.5709C10.8763 26.8325 13.06 27.5022 15.2903 27.4998C18.3931 27.5221 21.375 26.2421 23.569 23.9461C25.763 21.65 26.986 18.5296 26.9644 15.2827C26.9644 15.0966 26.9603 14.9115 26.952 14.7274C27.7556 14.1197 28.4491 13.3669 29 12.5043C28.2514 12.8516 27.4573 13.0795 26.6441 13.1807Z" fill="white"/>
</svg>
