<svg width="20" height="20" viewBox="0 0 20 20" fill="none" xmlns="http://www.w3.org/2000/svg">
<g id="vuesax/outline/search-normal">
<g id="search-normal">
<path id="Vector" d="M9.58366 18.1253C4.87533 18.1253 1.04199 14.292 1.04199 9.58366C1.04199 4.87533 4.87533 1.04199 9.58366 1.04199C14.292 1.04199 18.1253 4.87533 18.1253 9.58366C18.1253 14.292 14.292 18.1253 9.58366 18.1253ZM9.58366 2.29199C5.55866 2.29199 2.29199 5.56699 2.29199 9.58366C2.29199 13.6003 5.55866 16.8753 9.58366 16.8753C13.6087 16.8753 16.8753 13.6003 16.8753 9.58366C16.8753 5.56699 13.6087 2.29199 9.58366 2.29199Z" fill="#555357"/>
<path id="Vector_2" d="M18.3335 18.9585C18.1752 18.9585 18.0169 18.9002 17.8919 18.7752L16.2252 17.1085C15.9835 16.8669 15.9835 16.4669 16.2252 16.2252C16.4669 15.9835 16.8669 15.9835 17.1085 16.2252L18.7752 17.8919C19.0169 18.1335 19.0169 18.5335 18.7752 18.7752C18.6502 18.9002 18.4919 18.9585 18.3335 18.9585Z" fill="#555357"/>
</g>
</g>
</svg>
