<svg width="26" height="26" viewBox="0 0 26 26" fill="none" xmlns="http://www.w3.org/2000/svg">
<path d="M23.4351 8.04373H17.1742C16.7464 8.04373 16.3916 7.68895 16.3916 7.26112C16.3916 6.8333 16.7464 6.47852 17.1742 6.47852H23.4351C23.8629 6.47852 24.2177 6.8333 24.2177 7.26112C24.2177 7.68895 23.8629 8.04373 23.4351 8.04373Z" fill="white"/>
<path d="M6.73973 8.04373H2.56581C2.13799 8.04373 1.7832 7.68895 1.7832 7.26112C1.7832 6.8333 2.13799 6.47852 2.56581 6.47852H6.73973C7.16755 6.47852 7.52233 6.8333 7.52233 7.26112C7.52233 7.68895 7.16755 8.04373 6.73973 8.04373Z" fill="white"/>
<path d="M10.9133 11.6957C8.47156 11.6957 6.47852 9.70269 6.47852 7.26095C6.47852 4.81922 8.47156 2.82617 10.9133 2.82617C13.355 2.82617 15.3481 4.81922 15.3481 7.26095C15.3481 9.70269 13.355 11.6957 10.9133 11.6957ZM10.9133 4.39139C9.32721 4.39139 8.04373 5.67487 8.04373 7.26095C8.04373 8.84704 9.32721 10.1305 10.9133 10.1305C12.4994 10.1305 13.7829 8.84704 13.7829 7.26095C13.7829 5.67487 12.4994 4.39139 10.9133 4.39139Z" fill="white"/>
<path d="M23.435 19.5222H19.2611C18.8333 19.5222 18.4785 19.1675 18.4785 18.7396C18.4785 18.3118 18.8333 17.957 19.2611 17.957H23.435C23.8629 17.957 24.2176 18.3118 24.2176 18.7396C24.2176 19.1675 23.8629 19.5222 23.435 19.5222Z" fill="white"/>
<path d="M8.82668 19.5222H2.56581C2.13799 19.5222 1.7832 19.1675 1.7832 18.7396C1.7832 18.3118 2.13799 17.957 2.56581 17.957H8.82668C9.25451 17.957 9.60929 18.3118 9.60929 18.7396C9.60929 19.1675 9.25451 19.5222 8.82668 19.5222Z" fill="white"/>
<path d="M15.0871 23.1743C12.6454 23.1743 10.6523 21.1812 10.6523 18.7395C10.6523 16.2977 12.6454 14.3047 15.0871 14.3047C17.5289 14.3047 19.5219 16.2977 19.5219 18.7395C19.5219 21.1812 17.5289 23.1743 15.0871 23.1743ZM15.0871 15.8699C13.501 15.8699 12.2176 17.1534 12.2176 18.7395C12.2176 20.3256 13.501 21.609 15.0871 21.609C16.6732 21.609 17.9567 20.3256 17.9567 18.7395C17.9567 17.1534 16.6732 15.8699 15.0871 15.8699Z" fill="white"/>
</svg>
