<svg width="22" height="22" viewBox="0 0 22 22" fill="none" xmlns="http://www.w3.org/2000/svg">
<g id="fi_2961937">
<path id="Vector" d="M1.57687 20.4223C1.64072 20.4863 1.71655 20.537 1.80001 20.5716C1.88347 20.6062 1.97293 20.624 2.06328 20.624C2.15363 20.624 2.24309 20.6062 2.32655 20.5716C2.41001 20.537 2.48584 20.4863 2.54969 20.4223L10.9991 11.973L19.4519 20.4223C19.5809 20.5513 19.7558 20.6238 19.9383 20.6238C20.1207 20.6238 20.2957 20.5513 20.4247 20.4223C20.5537 20.2933 20.6262 20.1184 20.6262 19.9359C20.6262 19.7535 20.5537 19.5785 20.4247 19.4495L11.9719 11.0001L20.4212 2.54734C20.5503 2.41833 20.6227 2.24337 20.6227 2.06093C20.6227 1.87849 20.5503 1.70353 20.4212 1.57452C20.2922 1.44552 20.1173 1.37305 19.9348 1.37305C19.7524 1.37305 19.5774 1.44552 19.4484 1.57452L10.9991 10.0273L2.54625 1.57796C2.41473 1.46533 2.24555 1.40648 2.07252 1.41316C1.8995 1.41984 1.73536 1.49157 1.61292 1.61401C1.49048 1.73645 1.41875 1.90058 1.41207 2.07361C1.40539 2.24664 1.46424 2.41582 1.57687 2.54734L10.0262 11.0001L1.57687 19.453C1.44883 19.5818 1.37695 19.756 1.37695 19.9376C1.37695 20.1193 1.44883 20.2935 1.57687 20.4223Z" fill="#6A3190"/>
</g>
</svg>
