<svg width="36" height="36" viewBox="0 0 36 36" fill="none" xmlns="http://www.w3.org/2000/svg">
<rect width="36" height="36" rx="18" fill="#170E1F"/>
<g clip-path="url(#clip0_955_6075)">
<path d="M8 11.763V11.25C8 10.9185 8.1317 10.6005 8.36612 10.3661C8.60054 10.1317 8.91848 10 9.25 10H26.75C27.0815 10 27.3995 10.1317 27.6339 10.3661C27.8683 10.6005 28 10.9185 28 11.25V11.763L18 18.013L8 11.763ZM18.3313 19.2802C18.2319 19.3422 18.1171 19.375 18 19.375C17.8829 19.375 17.7681 19.3422 17.6687 19.2802L8 13.237V23.75C8 24.0815 8.1317 24.3995 8.36612 24.6339C8.60054 24.8683 8.91848 25 9.25 25H26.75C27.0815 25 27.3995 24.8683 27.6339 24.6339C27.8683 24.3995 28 24.0815 28 23.75V13.237L18.3313 19.2802Z" fill="#862FC0"/>
</g>
<defs>
<clipPath id="clip0_955_6075">
<rect width="20" height="15" fill="white" transform="translate(8 10)"/>
</clipPath>
</defs>
</svg>
